<svg width="50" height="48" viewBox="0 0 50 48" fill="none" xmlns="http://www.w3.org/2000/svg">
<path d="M13.375 20.875V41.875C13.375 42.5712 13.0984 43.2389 12.6062 43.7312C12.1139 44.2234 11.4462 44.5 10.75 44.5H5.5C4.80381 44.5 4.13613 44.2234 3.64384 43.7312C3.15156 43.2389 2.875 42.5712 2.875 41.875V23.5C2.875 22.8038 3.15156 22.1361 3.64384 21.6438C4.13613 21.1516 4.80381 20.875 5.5 20.875H13.375ZM13.375 20.875C16.1598 20.875 18.8305 19.7688 20.7996 17.7996C22.7688 15.8305 23.875 13.1598 23.875 10.375V7.75C23.875 6.35761 24.4281 5.02226 25.4127 4.03769C26.3973 3.05312 27.7326 2.5 29.125 2.5C30.5174 2.5 31.8527 3.05312 32.8373 4.03769C33.8219 5.02226 34.375 6.35761 34.375 7.75V20.875H42.25C43.6424 20.875 44.9777 21.4281 45.9623 22.4127C46.9469 23.3973 47.5 24.7326 47.5 26.125L44.875 39.25C44.4975 40.8604 43.7814 42.2431 42.8345 43.19C41.8876 44.1369 40.7612 44.5967 39.625 44.5H21.25C19.1614 44.5 17.1584 43.6703 15.6815 42.1935C14.2047 40.7166 13.375 38.7136 13.375 36.625" stroke="#046C1C" stroke-width="5" stroke-linecap="round" stroke-linejoin="round"/>
</svg>
