<svg width="20" height="20" viewBox="0 0 20 20" fill="none" xmlns="http://www.w3.org/2000/svg">
<path fill-rule="evenodd" clip-rule="evenodd" d="M6.07709 8.08893C6.40252 8.41437 6.93016 8.41437 7.2556 8.08893L9.99967 5.34485L12.7438 8.08893C13.0692 8.41437 13.5968 8.41437 13.9223 8.08893C14.2477 7.76349 14.2477 7.23586 13.9223 6.91042L10.5889 3.57709C10.2635 3.25165 9.73586 3.25165 9.41042 3.57709L6.07709 6.91042C5.75165 7.23586 5.75165 7.76349 6.07709 8.08893Z" fill="#545F54"/>
<path fill-rule="evenodd" clip-rule="evenodd" d="M6.07709 11.9111C6.40252 11.5856 6.93016 11.5856 7.2556 11.9111L9.99967 14.6551L12.7438 11.9111C13.0692 11.5856 13.5968 11.5856 13.9223 11.9111C14.2477 12.2365 14.2477 12.7641 13.9223 13.0896L10.5889 16.4229C10.2635 16.7484 9.73586 16.7484 9.41042 16.4229L6.07709 13.0896C5.75165 12.7641 5.75165 12.2365 6.07709 11.9111Z" fill="#545F54"/>
</svg>
