<svg width="21" height="20" viewBox="0 0 21 20" fill="none" xmlns="http://www.w3.org/2000/svg">
<path fill-rule="evenodd" clip-rule="evenodd" d="M8 0C5.23858 0 3 2.23858 3 5C3 7.76142 5.23858 10 8 10C10.7614 10 13 7.76142 13 5C13 2.23858 10.7614 0 8 0ZM5 5C5 3.34315 6.34315 2 8 2C9.65685 2 11 3.34315 11 5C11 6.65685 9.65685 8 8 8C6.34315 8 5 6.65685 5 5Z" fill="#505154"/>
<path d="M2.87868 14.8787C3.44129 14.3161 4.20435 14 5 14H11C11.7956 14 12.5587 14.3161 13.1213 14.8787C13.6839 15.4413 14 16.2043 14 17V19C14 19.5523 14.4477 20 15 20C15.5523 20 16 19.5523 16 19V17C16 15.6739 15.4732 14.4021 14.5355 13.4645C13.5979 12.5268 12.3261 12 11 12H5C3.67392 12 2.40215 12.5268 1.46447 13.4645C0.526784 14.4021 0 15.6739 0 17V19C0 19.5523 0.447715 20 1 20C1.55228 20 2 19.5523 2 19V17C2 16.2043 2.31607 15.4413 2.87868 14.8787Z" fill="#505154"/>
<path d="M14.0312 0.881844C14.1682 0.346818 14.713 0.0241445 15.248 0.161133C16.3236 0.436509 17.2768 1.06201 17.9576 1.93902C18.6383 2.81603 19.0078 3.89467 19.0078 5.00488C19.0078 6.1151 18.6383 7.19373 17.9576 8.07074C17.2768 8.94776 16.3236 9.57326 15.248 9.84863C14.713 9.98562 14.1682 9.66295 14.0312 9.12792C13.8943 8.5929 14.2169 8.04812 14.752 7.91113C15.3973 7.74591 15.9692 7.37061 16.3777 6.8444C16.7861 6.31819 17.0078 5.67101 17.0078 5.00488C17.0078 4.33876 16.7861 3.69157 16.3777 3.16537C15.9692 2.63916 15.3973 2.26386 14.752 2.09863C14.2169 1.96164 13.8943 1.41687 14.0312 0.881844Z" fill="#505154"/>
<path d="M17.25 12.1818C16.7152 12.0437 16.1698 12.3653 16.0317 12.9C15.8937 13.4348 16.2153 13.9802 16.75 14.1183C17.3911 14.2838 17.9595 14.6568 18.3665 15.1791C18.7729 15.7007 18.9956 16.3419 19 17.0031V19C19 19.5523 19.4477 20 20 20C20.5523 20 21 19.5523 21 19L21 17L21 16.9943C20.9936 15.8907 20.6224 14.8203 19.9441 13.9498C19.2658 13.0793 18.3185 12.4576 17.25 12.1818Z" fill="#505154"/>
</svg>
