<svg width="20" height="21" viewBox="0 0 20 21" fill="none" xmlns="http://www.w3.org/2000/svg">
<path fill-rule="evenodd" clip-rule="evenodd" d="M9.99938 0C13.3703 0 16.3501 1.6775 18.1613 4.24473C10.9865 6.81304 1.78057 8.89944 0.783722 6.14349C2.29987 2.53361 5.85543 0 9.99938 0ZM0.0464237 9.08513C3.76392 11.1075 11.0165 9.14044 18.1877 4.28183C19.3281 5.91378 20 7.90147 20 10.0464C20 15.5948 15.5232 20.0926 9.99982 20.0926C9.76878 20.0926 9.5399 20.0818 9.3121 20.0666C12.8133 19.0561 16.4844 15.7818 19.1489 10.0247C12.5564 17.9282 7.53108 19.2235 4.696 18.5616C3.67431 17.918 2.77679 17.0945 2.04768 16.1343C6.47269 17.1715 13.0933 13.0746 19.4652 6.85665C19.4793 6.84309 19.4647 6.83496 19.4501 6.82682C19.4355 6.81869 19.421 6.81055 19.435 6.797C10.1423 13.028 1.17931 15.0178 0.0205128 10.6574C0.00863698 10.4557 0 10.2514 0 10.0464C0 9.72214 0.017274 9.40183 0.0464237 9.08513Z" fill="#505154"/>
</svg>
