<svg width="16" height="18" viewBox="0 0 16 18" fill="none" xmlns="http://www.w3.org/2000/svg">
<path fill-rule="evenodd" clip-rule="evenodd" d="M12.1667 1.50033C12.1667 1.04009 11.7936 0.666992 11.3333 0.666992C10.8731 0.666992 10.5 1.04009 10.5 1.50033V2.33366H5.5V1.50033C5.5 1.04009 5.1269 0.666992 4.66667 0.666992C4.20643 0.666992 3.83333 1.04009 3.83333 1.50033V2.33366H3C1.61929 2.33366 0.5 3.45295 0.5 4.83366V8.16699V14.8337C0.5 16.2144 1.61929 17.3337 3 17.3337H13C14.3807 17.3337 15.5 16.2144 15.5 14.8337V8.16699V4.83366C15.5 3.45295 14.3807 2.33366 13 2.33366H12.1667V1.50033ZM13.8333 7.33366V4.83366C13.8333 4.37342 13.4602 4.00033 13 4.00033H12.1667V4.83366C12.1667 5.2939 11.7936 5.66699 11.3333 5.66699C10.8731 5.66699 10.5 5.2939 10.5 4.83366V4.00033H5.5V4.83366C5.5 5.2939 5.1269 5.66699 4.66667 5.66699C4.20643 5.66699 3.83333 5.2939 3.83333 4.83366V4.00033H3C2.53976 4.00033 2.16667 4.37342 2.16667 4.83366V7.33366H13.8333ZM2.16667 9.00033H13.8333V14.8337C13.8333 15.2939 13.4602 15.667 13 15.667H3C2.53976 15.667 2.16667 15.2939 2.16667 14.8337V9.00033Z" fill="white"/>
</svg>
