<svg width="20" height="20" viewBox="0 0 20 20" fill="none" xmlns="http://www.w3.org/2000/svg">
<path fill-rule="evenodd" clip-rule="evenodd" d="M11.5257 0.14935C11.8205 0.331557 12 0.653423 12 1V4.46482L17.5547 8.16795C17.8329 8.35342 18 8.66565 18 9V18H19C19.5523 18 20 18.4477 20 19C20 19.5523 19.5523 20 19 20H17.002L17 20L16.998 20H11.002L11 20L10.998 20H3.00197L3 20L2.99803 20H1C0.447715 20 0 19.5523 0 19C0 18.4477 0.447715 18 1 18H2V5C2 4.62123 2.214 4.27497 2.55279 4.10557L10.5528 0.105574C10.8628 -0.0494204 11.2309 -0.0328564 11.5257 0.14935ZM16 18V9.53518L12 6.86852V18H16ZM10 4.98453C9.99986 4.99424 9.99986 5.00394 10 5.01363V18H4V5.61803L10 2.61804V4.98453ZM7 6C7.55228 6 8 6.44772 8 7V7.01C8 7.56228 7.55228 8.01 7 8.01C6.44772 8.01 6 7.56228 6 7.01V7C6 6.44772 6.44772 6 7 6ZM8 10C8 9.44771 7.55228 9 7 9C6.44772 9 6 9.44771 6 10V10.01C6 10.5623 6.44772 11.01 7 11.01C7.55228 11.01 8 10.5623 8 10.01V10ZM7 12C7.55228 12 8 12.4477 8 13V13.01C8 13.5623 7.55228 14.01 7 14.01C6.44772 14.01 6 13.5623 6 13.01V13C6 12.4477 6.44772 12 7 12ZM8 16C8 15.4477 7.55228 15 7 15C6.44772 15 6 15.4477 6 16V16.01C6 16.5623 6.44772 17.01 7 17.01C7.55228 17.01 8 16.5623 8 16.01V16Z" fill="#505154"/>
</svg>
