<svg width="18" height="20" viewBox="0 0 18 20" fill="none" xmlns="http://www.w3.org/2000/svg">
<path d="M7 8C7.55228 8 8 8.44771 8 9V15C8 15.5523 7.55228 16 7 16C6.44772 16 6 15.5523 6 15V9C6 8.44771 6.44772 8 7 8Z" fill="#A7ACA7"/>
<path d="M12 9C12 8.44771 11.5523 8 11 8C10.4477 8 10 8.44771 10 9V15C10 15.5523 10.4477 16 11 16C11.5523 16 12 15.5523 12 15V9Z" fill="#A7ACA7"/>
<path fill-rule="evenodd" clip-rule="evenodd" d="M7 0C6.46957 0 5.96086 0.210714 5.58579 0.585786C5.21071 0.960859 5 1.46957 5 2V4H1C0.447715 4 0 4.44772 0 5C0 5.55228 0.447715 6 1 6H1.07986L2.00034 17.0458C2.01222 17.8249 2.32686 18.5696 2.87867 19.1214C3.44128 19.684 4.20434 20.0001 4.99999 20.0001H13C13.7956 20.0001 14.5587 19.684 15.1213 19.1214C15.6731 18.5696 15.9878 17.8249 15.9996 17.0458L16.9201 6H17C17.5523 6 18 5.55228 18 5C18 4.44772 17.5523 4 17 4H13V2C13 1.46957 12.7893 0.960859 12.4142 0.585786C12.0391 0.210714 11.5304 0 11 0H7ZM11 4V2H7V4H11ZM3.08679 6L3.99654 16.917C3.99884 16.9446 3.99999 16.9723 3.99999 17.0001C3.99999 17.2653 4.10535 17.5196 4.29289 17.7072C4.48042 17.8947 4.73478 18.0001 4.99999 18.0001H13C13.2652 18.0001 13.5196 17.8947 13.7071 17.7072C13.8946 17.5196 14 17.2653 14 17.0001C14 16.9723 14.0011 16.9446 14.0034 16.917L14.9132 6H3.08679Z" fill="#A7ACA7"/>
</svg>
