<svg width="144" height="81" viewBox="0 0 144 81" fill="none" xmlns="http://www.w3.org/2000/svg">
<g clip-path="url(#clip0)">
<path d="M0.299805 11H124.4M124.4 48V78C124.4 79.1 123.5 80 122.4 80H2.2998C1.1998 80 0.299805 79.1 0.299805 78V3C0.299805 1.9 1.1998 1 2.2998 1H122.4C123.5 1 124.4 1.9 124.4 3V40V48Z" stroke="#B2B2B2" stroke-width="2" stroke-miterlimit="10"/>
<path d="M5.5002 7.60001C6.49431 7.60001 7.3002 6.7941 7.3002 5.79999C7.3002 4.80588 6.49431 4 5.5002 4C4.50609 4 3.7002 4.80588 3.7002 5.79999C3.7002 6.7941 4.50609 7.60001 5.5002 7.60001Z" fill="#B2B2B2"/>
<path d="M11.0998 7.60001C12.0939 7.60001 12.8998 6.7941 12.8998 5.79999C12.8998 4.80588 12.0939 4 11.0998 4C10.1057 4 9.2998 4.80588 9.2998 5.79999C9.2998 6.7941 10.1057 7.60001 11.0998 7.60001Z" fill="#B2B2B2"/>
<path d="M16.7004 7.60001C17.6945 7.60001 18.5004 6.7941 18.5004 5.79999C18.5004 4.80588 17.6945 4 16.7004 4C15.7063 4 14.9004 4.80588 14.9004 5.79999C14.9004 6.7941 15.7063 7.60001 16.7004 7.60001Z" fill="#B2B2B2"/>
<path d="M137.7 39.9004L141.7 44.0004L137.7 48.1004M104.6 44.0004H141.3H104.6Z" stroke="#B2B2B2" stroke-width="2" stroke-miterlimit="10"/>
</g>
<defs>
<clipPath id="clip0">
<rect width="144" height="81" fill="white"/>
</clipPath>
</defs>
</svg>
