<svg width="26" height="26" viewBox="0 0 26 26" fill="none" xmlns="http://www.w3.org/2000/svg">
<path fill-rule="evenodd" clip-rule="evenodd" d="M4.6665 2.66667C4.31288 2.66667 3.97374 2.80714 3.72369 3.05719C3.48171 3.29917 3.34235 3.62459 3.33361 3.96582C3.64026 8.8244 5.70863 13.405 9.15175 16.8481C12.5949 20.2912 17.1754 22.3596 22.034 22.6662C22.3752 22.6575 22.7007 22.5181 22.9426 22.2761C23.1927 22.0261 23.3332 21.687 23.3332 21.3333V16.9027L18.5589 14.993L17.1432 17.3527C16.7861 17.9477 16.0324 18.1694 15.4101 17.8625C12.2515 16.3047 9.69512 13.7483 8.13736 10.5898C7.83043 9.96741 8.05215 9.21369 8.64718 8.85668L11.0068 7.44089L9.09713 2.66667H4.6665ZM1.83808 1.17157C2.58822 0.421427 3.60564 0 4.6665 0H9.99984C10.545 0 11.0353 0.331935 11.2378 0.838146L13.9045 7.50481C14.1475 8.11243 13.9137 8.80662 13.3525 9.14332L11.1205 10.4825C12.219 12.274 13.7258 13.7809 15.5173 14.8793L16.8565 12.6473C17.1932 12.0862 17.8874 11.8523 18.495 12.0954L25.1617 14.762C25.6679 14.9645 25.9998 15.4548 25.9998 16V21.3333C25.9998 22.3942 25.5784 23.4116 24.8283 24.1618C24.0781 24.9119 23.0607 25.3333 21.9998 25.3333C21.9729 25.3333 21.9459 25.3325 21.919 25.3309C16.3929 24.9951 11.1808 22.6484 7.26613 18.7337C3.35142 14.819 1.00478 9.60692 0.668959 4.08088C0.667323 4.05395 0.666504 4.02698 0.666504 4C0.666504 2.93913 1.08793 1.92172 1.83808 1.17157Z" fill="#505154"/>
</svg>
