<svg width="24" height="28" viewBox="0 0 24 28" fill="none" xmlns="http://www.w3.org/2000/svg">
<path fill-rule="evenodd" clip-rule="evenodd" d="M12 7.33328C9.0545 7.33328 6.66669 9.7211 6.66669 12.6666C6.66669 15.6121 9.0545 17.9999 12 17.9999C14.9455 17.9999 17.3334 15.6121 17.3334 12.6666C17.3334 9.7211 14.9455 7.33328 12 7.33328ZM9.33335 12.6666C9.33335 11.1939 10.5273 9.99995 12 9.99995C13.4728 9.99995 14.6667 11.1939 14.6667 12.6666C14.6667 14.1394 13.4728 15.3333 12 15.3333C10.5273 15.3333 9.33335 14.1394 9.33335 12.6666Z" fill="#505154"/>
<path fill-rule="evenodd" clip-rule="evenodd" d="M20.4855 21.1521L14.8286 26.8089C14.4575 27.1803 14.0163 27.4754 13.5313 27.6765C13.0461 27.8776 12.5259 27.9811 12.0007 27.9811C11.4754 27.9811 10.9553 27.8776 10.47 27.6765C9.9848 27.4753 9.54396 27.1805 9.17273 26.8089L3.51464 21.1522C1.83647 19.4739 0.693509 17.3356 0.230537 15.0078C-0.232436 12.6801 0.00524044 10.2673 0.91351 8.07465C1.82178 5.88197 3.35985 4.00786 5.33323 2.68931C7.3066 1.37076 9.62666 0.666992 12 0.666992C14.3734 0.666992 16.6934 1.37076 18.6668 2.68931C20.6402 4.00786 22.1782 5.88197 23.0865 8.07465C23.9948 10.2673 24.2324 12.6801 23.7695 15.0078C23.3065 17.3356 22.1637 19.4738 20.4855 21.1521ZM6.81473 4.90658C8.34958 3.88104 10.1541 3.33366 12 3.33366C13.8459 3.33366 15.6504 3.88104 17.1853 4.90658C18.7201 5.93211 19.9164 7.38975 20.6228 9.09517C21.3293 10.8006 21.5141 12.6772 21.154 14.4877C20.7939 16.2981 19.9051 17.9612 18.5999 19.2665L12.9425 24.9238C12.8189 25.0475 12.6717 25.1461 12.5102 25.2131C12.3487 25.28 12.1755 25.3145 12.0007 25.3145C11.8258 25.3145 11.6527 25.28 11.4911 25.2131C11.3296 25.1461 11.1829 25.048 11.0593 24.9243L5.40017 19.2665C4.09493 17.9612 3.20606 16.2981 2.84597 14.4877C2.48588 12.6772 2.67074 10.8006 3.37718 9.09517C4.08361 7.38975 5.27988 5.93211 6.81473 4.90658Z" fill="#505154"/>
</svg>
