<svg width="21" height="20" viewBox="0 0 21 20" fill="none" xmlns="http://www.w3.org/2000/svg">
<path d="M13.1195 5.79564L15.8191 3.58548C14.3759 2.38724 12.5219 1.66699 10.5 1.66699C7.27926 1.66699 4.48532 3.49391 3.0984 6.1679C2.5027 7.31533 2.16663 8.61845 2.16663 10.0003C2.16663 11.4294 2.52607 12.7741 3.15976 13.9495C4.56728 16.5599 7.32642 18.3337 10.5 18.3337C12.4748 18.3337 14.2889 17.6469 15.717 16.499C17.1854 15.3186 18.2454 13.6505 18.6511 11.7403C18.7706 11.1789 18.8333 10.5969 18.8333 10.0003C18.8333 9.46825 18.7834 8.94764 18.6877 8.44354H10.6832V11.7403H15.1392C14.7381 12.8108 13.9767 13.705 13.0023 14.2764C12.2684 14.7073 11.4129 14.9541 10.5 14.9541C8.37587 14.9541 6.56405 13.6171 5.86031 11.7389C5.65702 11.1982 5.54622 10.612 5.54615 10.0003C5.54615 9.43668 5.64049 8.89502 5.81357 8.39043C6.48206 6.44488 8.32779 5.04655 10.5 5.04655C11.4619 5.04655 12.3599 5.32083 13.1195 5.79564Z" fill="white"/>
</svg>
