<svg width="64" height="64" viewBox="0 0 64 64" fill="none" xmlns="http://www.w3.org/2000/svg">
<path d="M24 32.0003L29.3333 37.3337L40 26.667" stroke="#2A8BA3" stroke-width="3" stroke-linecap="round" stroke-linejoin="round"/>
<path d="M31.9999 8C38.2288 13.5109 46.3585 16.3802 54.6666 16C55.8761 20.1147 56.2462 24.4306 55.7549 28.6912C55.2635 32.9517 53.9207 37.0701 51.8063 40.8014C49.6919 44.5328 46.8489 47.801 43.4464 50.4119C40.0439 53.0229 36.1513 54.9232 31.9999 56C27.8485 54.9232 23.9558 53.0229 20.5533 50.4119C17.1508 47.801 14.3079 44.5328 12.1935 40.8014C10.079 37.0701 8.73624 32.9517 8.24488 28.6912C7.75353 24.4306 8.12364 20.1147 9.33322 16C17.6413 16.3802 25.771 13.5109 31.9999 8" stroke="#2A8BA3" stroke-width="3" stroke-linecap="round" stroke-linejoin="round"/>
</svg>
