<svg width="20" height="20" viewBox="0 0 20 20" fill="none" xmlns="http://www.w3.org/2000/svg">
<path fill-rule="evenodd" clip-rule="evenodd" d="M12.4136 2.01432C10.6997 1.49576 8.86437 1.54305 7.17943 2.1492C5.4945 2.75534 4.04963 3.8881 3.05885 5.37967C2.06807 6.87124 1.5841 8.64228 1.67861 10.4304C1.77313 12.2186 2.44112 13.9287 3.58362 15.3075C4.72611 16.6863 6.28235 17.6605 8.0218 18.0856C9.76124 18.5108 11.5914 18.3643 13.2411 17.6679C13.6651 17.489 13.8637 17.0001 13.6847 16.5761C13.5057 16.1521 13.0169 15.9535 12.5929 16.1325C11.2732 16.6896 9.80906 16.8067 8.41751 16.4666C7.02595 16.1265 5.78096 15.3472 4.86696 14.2441C3.95296 13.1411 3.41857 11.773 3.34296 10.3425C3.26734 8.91194 3.65452 7.49511 4.44714 6.30185C5.23977 5.1086 6.39567 4.20239 7.74361 3.71747C9.09156 3.23255 10.5599 3.19472 11.931 3.60957C13.3021 4.02443 14.5032 4.8699 15.3562 6.02075C16.2092 7.1716 16.6688 8.56661 16.667 9.99913V11.2502C16.667 11.5817 16.5353 11.8997 16.3009 12.1341C16.0665 12.3685 15.7485 12.5002 15.417 12.5002C15.0855 12.5002 14.7675 12.3685 14.5331 12.1341C14.2987 11.8997 14.167 11.5817 14.167 11.2502L14.167 10.0001C14.167 7.69894 12.3015 5.83346 10.0003 5.83346C7.69914 5.83346 5.83366 7.69894 5.83366 10.0001C5.83366 12.3013 7.69914 14.1668 10.0003 14.1668C11.1802 14.1668 12.2456 13.6763 13.0037 12.8882C13.1063 13.0393 13.2236 13.1816 13.3546 13.3126C13.9016 13.8596 14.6434 14.1669 15.417 14.1669C16.1905 14.1669 16.9324 13.8596 17.4794 13.3126C18.0264 12.7656 18.3337 12.0237 18.3337 11.2502V10.0013C18.336 8.21062 17.7614 6.46686 16.6951 5.0283C15.6289 3.58974 14.1276 2.53289 12.4136 2.01432ZM7.50033 10.0001C7.50033 8.61941 8.61961 7.50012 10.0003 7.50012C11.381 7.50012 12.5003 8.61941 12.5003 10.0001C12.5003 11.3808 11.381 12.5001 10.0003 12.5001C8.61961 12.5001 7.50033 11.3808 7.50033 10.0001Z" fill="#505154"/>
</svg>
