<svg width="20" height="20" viewBox="0 0 20 20" fill="none" xmlns="http://www.w3.org/2000/svg">
<path fill-rule="evenodd" clip-rule="evenodd" d="M9.6914 4.15533C11.3315 4.08883 12.9323 4.55522 14.1957 5.45154C15.4574 6.34661 16.2876 7.60106 16.5641 8.96723C16.8401 10.3308 16.5527 11.744 15.7374 12.9499C15.5923 13.1645 15.5552 13.4344 15.6371 13.6802L16.2599 15.5485L13.7678 15.0182C13.5864 14.9796 13.3973 15.0027 13.2304 15.0837C11.802 15.7771 10.1297 15.9889 8.52983 15.672C6.93014 15.3551 5.53538 14.5364 4.59253 13.3925C3.6522 12.2518 3.222 10.8638 3.35702 9.48538C3.49218 8.10559 4.18816 6.79493 5.34743 5.80614C6.50885 4.81552 8.05133 4.22183 9.6914 4.15533ZM17.5577 17.4989C17.4783 17.5034 17.3996 17.4963 17.3238 17.4788L13.693 16.7063C11.9933 17.4621 10.0571 17.6736 8.20594 17.3069C6.25753 16.9209 4.51207 15.9153 3.30645 14.4526C2.0983 12.9869 1.518 11.1635 1.69829 9.3229C1.87846 7.48361 2.80219 5.78651 4.26585 4.53809C5.72737 3.2915 7.63256 2.57077 9.62388 2.49003C11.6152 2.40929 13.5823 2.97287 15.1601 4.09221C16.7396 5.2128 17.8305 6.82255 18.1976 8.63658C18.5379 10.3177 18.2293 12.0416 17.3435 13.5286L18.2972 16.3897C18.3231 16.463 18.3389 16.5405 18.3433 16.6199C18.3491 16.7222 18.3357 16.8232 18.3056 16.9182C18.2692 17.0336 18.2093 17.1363 18.1325 17.2221C18.0558 17.308 17.9605 17.379 17.8499 17.428C17.7589 17.4687 17.66 17.4932 17.5577 17.4989Z" fill="#505154"/>
</svg>
