<svg width="18" height="21" viewBox="0 0 18 21" fill="none" xmlns="http://www.w3.org/2000/svg">
<path fill-rule="evenodd" clip-rule="evenodd" d="M9.00002 4.99972C6.79088 4.99972 5.00002 6.79058 5.00002 8.99972C5.00002 11.2089 6.79088 12.9997 9.00002 12.9997C11.2092 12.9997 13 11.2089 13 8.99972C13 6.79058 11.2092 4.99972 9.00002 4.99972ZM7.00002 8.99972C7.00002 7.89515 7.89545 6.99972 9.00002 6.99972C10.1046 6.99972 11 7.89515 11 8.99972C11 10.1043 10.1046 10.9997 9.00002 10.9997C7.89545 10.9997 7.00002 10.1043 7.00002 8.99972Z" fill="#0D0D0E"/>
<path fill-rule="evenodd" clip-rule="evenodd" d="M15.3641 15.3638L11.1215 19.6065C10.8431 19.885 10.5123 20.1063 10.1485 20.2571C9.78454 20.408 9.39445 20.4856 9.0005 20.4856C8.60655 20.4856 8.21646 20.408 7.85253 20.2571C7.4886 20.1063 7.15797 19.8852 6.87955 19.6065L2.63598 15.3639C1.37735 14.1052 0.520132 12.5015 0.172903 10.7556C-0.174327 9.00982 0.00393033 7.20025 0.685133 5.55574C1.36633 3.91123 2.51989 2.50565 3.99992 1.51674C5.47995 0.527829 7.21999 0 9 0C10.78 0 12.5201 0.527829 14.0001 1.51674C15.4801 2.50565 16.6337 3.91123 17.3149 5.55574C17.9961 7.20025 18.1743 9.00982 17.8271 10.7556C17.4799 12.5015 16.6228 14.1051 15.3641 15.3638ZM5.11105 3.17969C6.26219 2.41053 7.61555 2 9 2C10.3845 2 11.7378 2.41053 12.889 3.17969C14.0401 3.94884 14.9373 5.04207 15.4671 6.32113C15.997 7.60019 16.1356 9.00764 15.8655 10.3655C15.5955 11.7233 14.9288 12.9706 13.9499 13.9496L9.7069 18.1926C9.61421 18.2854 9.5038 18.3593 9.38265 18.4095C9.26151 18.4598 9.13165 18.4856 9.0005 18.4856C8.86936 18.4856 8.7395 18.4598 8.61836 18.4095C8.49721 18.3593 8.38715 18.2857 8.29446 18.1929L4.05013 13.9496C3.0712 12.9706 2.40455 11.7234 2.13448 10.3655C1.86441 9.00764 2.00306 7.60019 2.53288 6.32113C3.06271 5.04207 3.95991 3.94884 5.11105 3.17969Z" fill="#0D0D0E"/>
</svg>
