<svg width="45" height="49" viewBox="0 0 45 49" fill="none" xmlns="http://www.w3.org/2000/svg">
<path fill-rule="evenodd" clip-rule="evenodd" d="M43.0225 11.2632C43.0225 9.96068 41.9881 8.88799 40.6856 8.84968C39.383 8.84968 38.3103 9.88406 38.3103 11.1866C38.3103 12.4892 39.3447 13.5619 40.6473 13.6002C41.9498 13.6385 43.0225 12.5658 43.0225 11.2632ZM37.6207 8.04517C37.6207 6.74262 36.548 5.70824 35.2455 5.70824C33.9429 5.70824 32.9086 6.78092 32.8703 8.08347C32.8703 9.38603 33.9046 10.4204 35.2455 10.4204C36.5864 10.4204 37.6207 9.34772 37.6207 8.04517ZM31.6443 9.99899C31.6443 8.69644 30.5716 7.62375 29.2691 7.62375C27.9665 7.58544 26.8938 8.65813 26.8938 9.99899C26.8938 11.3015 27.9665 12.3742 29.2691 12.3742C30.5716 12.3742 31.6443 11.3015 31.6443 9.99899ZM18.0442 3.17976V5.40175C18.0442 6.12965 18.0442 6.81924 18.0058 7.58544C19.0402 7.01079 19.998 6.51275 21.109 5.9381C21.1182 6.01153 21.1295 6.08276 21.1405 6.15126C21.1752 6.36869 21.2056 6.55865 21.1473 6.70431C20.952 7.31815 20.7465 7.92183 20.542 8.52275C20.1848 9.572 19.8306 10.6128 19.5383 11.6846C18.9636 13.7151 20.8791 15.5923 22.9096 15.056C24.5569 14.6345 25.4381 13.0638 24.9017 11.4165L23.3693 6.70431C23.311 6.55865 23.3414 6.36869 23.3761 6.15128C23.387 6.08277 23.3984 6.01153 23.4076 5.9381C24.5569 6.51275 25.5147 7.01079 26.5107 7.54713V3.14145C25.6296 3.44793 24.7868 3.7161 23.9439 3.94596C23.7907 4.02258 23.4842 4.02258 23.4076 3.90765C23.2927 3.83103 23.331 3.52455 23.3693 3.37131L23.3693 3.37126C23.7141 2.26028 24.0589 1.14929 24.442 0H20.1512C20.168 0.0503918 20.1775 0.0934186 20.186 0.13231C20.1969 0.182119 20.2063 0.225145 20.2278 0.268171C20.2956 0.4789 20.3633 0.688151 20.4308 0.896504C20.7066 1.74874 20.9776 2.58597 21.2239 3.44793C21.2622 3.60117 21.2239 3.83103 21.1473 3.94596C21.0707 4.02258 20.8408 4.02258 20.6876 3.98427C20.4322 3.93319 20.1768 3.84806 19.9214 3.76292C19.7937 3.72036 19.666 3.67779 19.5383 3.63948C19.0785 3.48624 18.5805 3.333 18.0442 3.17976ZM17.7377 9.99899C17.7377 8.69644 16.665 7.62375 15.3624 7.62375C14.0599 7.62375 12.9872 8.65813 12.9872 9.99899C12.9872 11.3015 14.0599 12.3742 15.3624 12.3742C16.6267 12.3742 17.7377 11.3015 17.7377 9.99899ZM11.723 8.08347C11.723 6.74261 10.6503 5.70824 9.34772 5.70824C8.04517 5.74655 6.97248 6.78092 6.97248 8.08347C6.97248 9.38603 8.04517 10.4587 9.34772 10.4587C10.6886 10.4587 11.723 9.38603 11.723 8.08347ZM7.27701 25.7116C7.47547 25.8267 7.6775 25.9438 7.89193 26.051C7.76539 25.6443 7.64098 25.2418 7.51821 24.8446C7.12058 23.5583 6.74005 22.3272 6.35951 21.1856C6.32908 21.2617 6.29889 21.3378 6.26872 21.4138C5.91921 22.2946 5.57379 23.165 4.90372 23.9056C4.50891 22.9186 4.65095 21.9598 4.796 20.9808C4.81984 20.8198 4.84377 20.6583 4.86541 20.496C4.23922 20.7335 3.63738 20.9467 3.04615 21.1561C2.58841 21.3183 2.13703 21.4782 1.68565 21.6453C1.86229 21.9397 2.03893 22.2228 2.21123 22.4989C2.48735 22.9415 2.7523 23.3661 2.9882 23.7907C4.55893 26.5107 5.51668 29.4606 6.24458 32.4872C6.35951 32.9469 6.55106 33.0235 6.97248 32.9469C11.4931 32.2956 16.0137 32.0274 20.5343 31.9508C26.3192 31.8359 32.0274 32.1424 37.7357 32.9469C38.1188 32.9852 38.3486 32.9469 38.3869 32.5255C38.4636 32.1424 38.5785 31.7593 38.6934 31.3763L38.6934 31.3762C39.6129 28.0815 40.7622 24.8634 42.7543 22.0284C42.7854 21.9819 42.8101 21.9353 42.8362 21.8862C42.8746 21.8141 42.9158 21.7365 42.9842 21.6453C42.136 21.3727 41.3118 21.0761 40.4736 20.7745C40.2518 20.6947 40.0289 20.6145 39.8044 20.5343C39.831 20.7334 39.8621 20.9314 39.8931 21.1281C40.0408 22.0674 40.1845 22.9805 39.8044 23.8673L39.6129 23.944C39.4778 23.6615 39.3427 23.3752 39.2064 23.0862C38.9174 22.4734 38.6227 21.8487 38.3103 21.2239C38.104 21.9062 37.9044 22.5885 37.7031 23.2762C37.4183 24.249 37.1304 25.2326 36.8162 26.2426C36.9164 26.1806 37.0148 26.118 37.1121 26.056C37.7966 25.6205 38.4296 25.2177 39.2681 25.2848C38.8467 26.0127 38.4253 26.7406 37.9272 27.3919C37.3909 28.1198 36.7013 28.6561 35.8201 28.9243C34.8624 29.1925 33.828 28.8477 33.2534 28.0815C32.7553 27.3919 32.6787 26.3575 33.1001 25.6296C33.5981 24.7485 34.4793 24.6718 35.1306 25.4381C35.2135 25.521 35.2853 25.6264 35.364 25.7421C35.4307 25.8402 35.5024 25.9456 35.5903 26.051C35.9734 25.1699 36.2416 24.3271 35.7052 23.5225C35.0923 22.6031 34.1728 22.6797 33.1767 22.9479C35.8202 20.1129 35.2455 17.8526 33.7131 15.9371C31.1846 17.6994 30.9164 20.0363 32.1424 22.8329C30.9164 21.9135 30.0353 21.7986 29.384 22.4115C28.771 22.9479 28.6178 24.1738 29.0775 24.94C29.1047 24.9129 29.1318 24.8905 29.1573 24.8696C29.2036 24.8314 29.2443 24.7979 29.2691 24.7485C29.6139 24.3271 30.0353 23.9823 30.6099 24.2121C31.1846 24.4037 31.3762 24.9017 31.4528 25.4764C31.5677 26.4724 31.0697 27.2003 30.2652 27.7367C29.4989 28.2347 28.6561 28.4646 27.775 28.5029C24.6335 28.5795 23.0628 27.162 23.1777 23.7524C24.7814 23.8643 25.7316 24.9564 26.7351 26.1099C26.7624 26.1413 26.7898 26.1728 26.8172 26.2043C26.8747 25.5147 26.9321 24.8413 26.9896 24.1679C27.0854 23.0455 27.1812 21.9231 27.2769 20.7259C26.0893 21.9135 24.7868 22.5265 23.0628 22.4882C23.21 22.2551 23.3494 22.0298 23.4847 21.8112C23.7718 21.3471 24.0406 20.9127 24.3271 20.496C24.6192 20.0445 24.9482 19.6298 25.2885 19.2008C25.439 19.0111 25.5918 18.8186 25.7445 18.6188H18.9636C19.0965 18.7875 19.2294 18.9534 19.3611 19.1179C20.2172 20.187 21.0273 21.1985 21.4921 22.5265C20.7642 22.4499 19.998 22.3349 19.3467 22.0667C18.8512 21.8465 18.415 21.5471 17.9671 21.2397C17.7917 21.1193 17.6145 20.9977 17.4312 20.8791C17.4695 21.3196 17.5078 21.7576 17.5461 22.1957C17.661 23.5103 17.776 24.825 17.8909 26.2043C17.9177 26.1735 17.9445 26.1428 17.9712 26.1121C18.9754 24.9578 19.9267 23.8644 21.5687 23.7524C21.5506 23.9514 21.5411 24.1334 21.532 24.3063C21.5219 24.4995 21.5123 24.6815 21.4921 24.8634C21.3389 26.8555 20.3811 28.0048 18.4656 28.3879C18.1591 28.4646 17.8909 28.5029 17.5844 28.5029C16.3202 28.5412 15.0943 28.3113 14.0982 27.4685C13.2554 26.7789 12.9872 25.7445 13.4086 24.8634C13.7917 24.0972 14.5579 23.9056 15.2092 24.4803C15.3624 24.6335 15.5157 24.8251 15.6689 25.0166C16.0903 23.944 15.9371 22.9096 15.3241 22.4115C14.4047 21.6453 13.5619 22.1051 12.6807 22.718C12.7171 22.6054 12.7539 22.4937 12.7903 22.3827C13.1759 21.2093 13.5354 20.1153 13.2554 18.9253C12.9489 17.6227 12.0677 16.7416 11.0334 15.8988C9.07954 18.3506 9.38603 20.6493 11.608 22.9096C10.497 22.6414 9.57758 22.5648 9.00292 23.4842C8.50489 24.2887 8.77306 25.0933 9.15617 25.9744C9.20105 25.8846 9.24593 25.8212 9.28312 25.7686C9.30941 25.7314 9.33185 25.6997 9.34772 25.6679C9.76913 24.9783 10.2672 24.7102 10.7652 24.8251C11.3399 24.94 11.7613 25.553 11.8762 26.2426C12.1061 28.0432 10.3438 29.384 8.58151 28.6561C6.97248 27.9665 6.16796 26.5874 5.40175 25.0549C6.14441 25.0549 6.69539 25.3744 7.27701 25.7116ZM6.3212 11.2249C6.3212 9.92237 5.28682 8.84968 3.98427 8.84968C2.68172 8.84968 1.60903 9.92237 1.57072 11.2249C1.57072 12.5275 2.64341 13.6002 3.94596 13.6002C5.24851 13.6002 6.3212 12.5275 6.3212 11.2249ZM2.37524 14.8261C1.07269 14.8261 0 15.8988 0 17.2013C0 18.5039 1.07269 19.5766 2.37524 19.5383C3.7161 19.5383 4.75048 18.5039 4.75048 17.2013C4.75048 15.8605 3.67779 14.8261 2.37524 14.8261ZM7.39389 47.9645H8.81137C8.81137 46.4321 8.81137 44.938 8.77306 43.4439H5.05696V44.7848H7.12572C7.12572 45.6276 6.81924 46.1256 6.20627 46.4321C5.17189 46.9301 3.90765 46.547 3.37131 45.5127C2.83496 44.44 2.83496 43.2907 3.37131 42.1797C3.90765 41.107 5.24851 40.7239 6.28289 41.3368C6.56813 41.508 6.78966 41.7428 7.02654 41.994C7.10781 42.0801 7.19088 42.1682 7.27896 42.2563C7.46319 42.1558 7.65474 42.048 7.85361 41.9361C8.10965 41.792 8.37782 41.641 8.65813 41.4901C7.93024 40.1875 6.62768 39.4979 4.94203 39.6129C3.40962 39.7278 2.29862 40.494 1.64734 41.9115C1.26424 42.8693 1.18762 43.827 1.34086 44.8231C1.60903 46.5854 2.79665 47.8113 4.48231 48.0795C5.555 48.2327 6.51275 48.0028 7.35558 47.16C7.35558 47.3243 7.36658 47.4775 7.37679 47.6197C7.38564 47.7429 7.39389 47.8578 7.39389 47.9645ZM11.5314 47.4282C12.8723 48.3093 14.2897 48.3859 15.7072 47.658C17.2013 46.8918 17.7377 45.4743 17.776 44.2867C17.8143 40.7622 15.2858 38.8467 12.4892 39.7661C10.7652 40.3408 9.69251 42.0647 9.80744 44.0569C9.88406 45.436 10.3438 46.6237 11.5314 47.4282ZM20.3811 47.773C20.3811 47.8879 20.5726 48.0028 20.6876 48.0028H22.7563C23.5225 45.2445 24.2887 42.5245 25.0933 39.7278H23.2161C22.9305 40.8921 22.6323 42.0564 22.336 43.2135C22.1155 44.0743 21.8961 44.931 21.6836 45.7808C21.5687 45.6946 21.54 45.6084 21.5166 45.5384C21.5089 45.5151 21.5017 45.4935 21.4921 45.4743C21.0324 43.6738 20.5726 41.8732 20.0746 40.0726C20.0363 39.9194 19.8447 39.6895 19.7298 39.6895C19.375 39.6641 19.0201 39.6723 18.6542 39.6808C18.467 39.6851 18.2769 39.6895 18.0825 39.6895C18.6571 41.7583 19.2318 43.7624 19.8065 45.7666C19.998 46.4346 20.1895 47.1026 20.3811 47.773ZM24.9783 47.0068C24.9783 47.6197 25.4381 48.1178 26.051 48.1178C26.6257 48.1178 27.0854 47.6197 27.0854 47.0451C27.1237 46.4704 26.6257 45.9341 26.051 45.9341C25.4764 45.8958 24.9783 46.3938 24.9783 47.0068ZM34.7858 44.8231V40.5706V39.6895H33.1001V44.8614C33.1001 45.7042 32.717 46.2789 32.0274 46.5087C30.7249 46.9301 29.6905 46.2023 29.6905 44.8231V39.6895H28.0048C27.9665 39.8427 27.9665 39.9577 27.9665 40.0726C27.9665 40.512 27.9642 40.9537 27.9618 41.3966C27.9546 42.7303 27.9473 44.0748 28.0048 45.3977C28.0432 46.5087 28.6944 47.3132 29.6905 47.6964C30.3801 47.9645 31.1463 48.0795 31.8742 48.0411C33.7131 47.9262 34.7858 46.7003 34.7858 44.8231ZM40.8771 47.6964C40.9537 47.8113 41.107 48.0028 41.2602 48.0028L43.0225 48.0411C42.103 46.5854 41.2602 45.2062 40.4174 43.827C39.9193 43.0225 39.9194 43.0225 40.5323 42.3329C41.1432 41.6609 41.7298 40.9889 42.3502 40.2781C42.5079 40.0974 42.6679 39.9142 42.8309 39.7278C42.733 39.7278 42.6453 39.7329 42.566 39.7375C42.428 39.7456 42.3153 39.7521 42.218 39.7278C41.1453 39.5363 40.4174 39.9193 39.8044 40.8388C39.4149 41.451 38.9242 42.0025 38.4353 42.5521C38.2511 42.7592 38.0671 42.966 37.8889 43.1757L37.774 43.1374V39.7278H36.1266V48.0028H37.8123C37.8123 47.8113 37.8208 47.6197 37.8293 47.4282C37.8463 47.0451 37.8634 46.662 37.8123 46.2789C37.6958 45.5508 38.0885 45.1548 38.5023 44.7375C38.6329 44.6058 38.7655 44.4721 38.885 44.325C39.2773 45.0006 39.6571 45.639 40.0317 46.2684C40.3155 46.7455 40.5963 47.2174 40.8771 47.6964ZM39.881 17.2396C39.881 18.5805 40.9154 19.5766 42.2563 19.5766C43.5588 19.5766 44.6315 18.5039 44.6315 17.2013C44.5932 15.8988 43.5588 14.8644 42.218 14.8644C40.9154 14.8644 39.881 15.8988 39.881 17.2396ZM13.9451 41.0686C15.0178 41.1452 15.8223 41.988 15.9756 43.214C16.0139 43.4438 16.0139 43.6737 16.0139 43.9418V43.9419C16.0139 44.4199 15.9373 44.7847 15.8223 45.1678C15.4775 46.1255 14.7497 46.6619 13.7536 46.6619C12.7958 46.6619 12.0296 46.0872 11.7231 45.1295C11.455 44.3633 11.455 43.5971 11.6465 42.8309C11.953 41.6432 12.8341 40.992 13.9451 41.0686Z" fill="#0D0D0E"/>
</svg>
