<svg width="40" height="40" viewBox="0 0 40 40" fill="none" xmlns="http://www.w3.org/2000/svg">
<g clip-path="url(#clip0)">
<path d="M14.9228 36.4096C13.1931 36.4096 11.4127 36.2695 9.62158 35.9887C6.46698 35.4937 3.27362 33.8436 2.37 33.3496L0.404832 32.2751C0.25124 32.1912 0.272009 31.9643 0.438298 31.9097L2.56592 31.21C5.37079 30.2877 7.07703 29.7155 9.18915 28.8195C7.07428 27.7954 5.44434 25.953 4.65973 23.5714L4.06281 21.7593L4.55231 21.8341C4.08813 21.3662 3.72162 20.8914 3.4375 20.4595C2.42706 18.9248 1.89209 17.0495 2.00592 15.4425L2.11823 13.8607L3.06519 14.2276C2.66571 13.4732 2.37701 12.6675 2.20734 11.8231C1.79382 9.76375 2.13989 7.57594 3.18207 5.6628L4.00696 4.14851L5.11017 5.47359C8.59924 9.66487 13.0185 12.1511 18.2635 12.879C18.0493 11.4022 18.2098 9.97707 18.7411 8.6996C19.3597 7.21217 20.4602 5.95088 21.9226 5.05183C23.5468 4.0536 25.5164 3.5699 27.4686 3.68984C29.5398 3.81709 31.4203 4.59316 32.9138 5.93562C33.6432 5.74611 34.1806 5.54378 34.9069 5.27034C35.3439 5.10585 35.8395 4.91908 36.4597 4.70546L38.7448 3.91811L37.2546 8.17409C37.3529 8.16585 37.4542 8.15883 37.5601 8.15425L40.0003 8.04378L38.558 10.0149C38.4753 10.1278 38.4543 10.1599 38.425 10.2041C38.3087 10.3793 38.1641 10.5972 36.1844 13.2406C35.6888 13.9025 35.4413 14.7647 35.4874 15.6686C35.6628 19.1037 35.2414 22.2116 34.234 24.9057C33.2812 27.4545 31.8048 29.6414 29.8462 31.4056C27.4225 33.5882 24.332 35.0827 20.6601 35.8468C18.8589 36.2216 16.9247 36.4096 14.9228 36.4096Z" fill="#8E8E8F"/>
</g>
<defs>
<clipPath id="clip0">
<rect width="40.0002" height="40" fill="white"/>
</clipPath>
</defs>
</svg>
