<svg width="26" height="24" viewBox="0 0 26 24" fill="none" xmlns="http://www.w3.org/2000/svg">
<path d="M13.4311 20.1993C13.1609 20.0573 12.8381 20.0573 12.568 20.1993L6.4323 23.4247C5.75183 23.7824 4.95657 23.2045 5.08653 22.4468L6.25838 15.6145C6.31 15.3135 6.21019 15.0065 5.9915 14.7934L1.02588 9.95498C0.475207 9.41842 0.77893 8.48333 1.53979 8.37276L8.39969 7.37588C8.70175 7.33199 8.96288 7.14229 9.098 6.86859L12.1677 0.650726C12.508 -0.0385719 13.4909 -0.03851 13.8311 0.650832L16.8997 6.86849C17.0348 7.14225 17.296 7.33199 17.5981 7.37589L24.4581 8.3728C25.2189 8.48336 25.5227 9.41836 24.9721 9.95495L20.0075 14.7933C19.7888 15.0065 19.689 15.3136 19.7407 15.6145L20.9135 22.4467C21.0436 23.2044 20.2483 23.7824 19.5678 23.4247L13.4311 20.1993Z" fill="#F6AE2D"/>
</svg>
