<svg width="48" height="48" viewBox="0 0 48 48" fill="none" xmlns="http://www.w3.org/2000/svg">
<path fill-rule="evenodd" clip-rule="evenodd" d="M24 48C37.2548 48 48 37.2548 48 24C48 10.7452 37.2548 0 24 0C10.7452 0 0 10.7452 0 24C0 37.2548 10.7452 48 24 48ZM21.1203 31.9928C21.3225 32.0764 21.5392 32.1191 21.758 32.1187C21.9768 32.1191 22.1935 32.0764 22.3957 31.9928C22.5979 31.9093 22.7816 31.7867 22.9363 31.632L34.723 19.8453C35.0355 19.5326 35.211 19.1085 35.2108 18.6664C35.2107 18.2243 35.0349 17.8004 34.7221 17.4878C34.4094 17.1753 33.9853 16.9998 33.5432 17C33.1011 17.0002 32.6772 17.1759 32.3646 17.4887L21.7563 28.0937L15.8646 22.202C15.7108 22.0429 15.5268 21.9161 15.3234 21.8289C15.12 21.7417 14.9013 21.6959 14.68 21.6941C14.4587 21.6923 14.2392 21.7347 14.0345 21.8186C13.8297 21.9026 13.6437 22.0264 13.4873 22.183C13.3309 22.3396 13.2073 22.5258 13.1237 22.7307C13.04 22.9356 12.998 23.1551 13.0001 23.3764C13.0022 23.5977 13.0483 23.8163 13.1358 24.0196C13.2233 24.2229 13.3504 24.4067 13.5096 24.5603L20.5796 31.632C20.7343 31.7867 20.9181 31.9093 21.1203 31.9928Z" fill="#008040"/>
</svg>
