<svg width="16" height="16" viewBox="0 0 16 16" fill="none" xmlns="http://www.w3.org/2000/svg">
<path fill-rule="evenodd" clip-rule="evenodd" d="M8.95147 0.57408C7.30178 0.361217 5.62787 0.696658 4.18758 1.52873C3.41477 1.97519 2.73223 2.55134 2.16677 3.22665V2.16593C2.16677 1.7057 1.79367 1.3326 1.33344 1.3326C0.873198 1.3326 0.500102 1.7057 0.500102 2.16593V5.49927C0.500102 5.95951 0.873198 6.3326 1.33344 6.3326H1.73079C1.74346 6.33289 1.75612 6.33289 1.76874 6.3326H4.66677C5.12701 6.3326 5.5001 5.95951 5.5001 5.49927C5.5001 5.03903 5.12701 4.66594 4.66677 4.66594H3.15939C3.64841 3.97836 4.2819 3.39904 5.0213 2.97188C6.14504 2.32268 7.45107 2.06096 8.73819 2.22704C10.0253 2.39312 11.2221 2.97779 12.1443 3.89097C13.0664 4.80416 13.6627 5.99521 13.8414 7.28064C13.9047 7.7365 14.3256 8.05469 14.7815 7.99134C15.2373 7.92798 15.5555 7.50708 15.4922 7.05123C15.2632 5.4037 14.4989 3.87714 13.317 2.70672C12.1351 1.5363 10.6012 0.786944 8.95147 0.57408ZM2.15884 8.71824C2.09549 8.26238 1.67458 7.9442 1.21873 8.00755C0.762872 8.0709 0.444684 8.4918 0.508035 8.94765C0.736994 10.5952 1.50129 12.1217 2.6832 13.2922C3.8651 14.4626 5.39905 15.2119 7.04874 15.4248C8.69843 15.6377 10.3723 15.3022 11.8126 14.4702C12.5854 14.0237 13.268 13.4475 13.8334 12.7722V13.8329C13.8334 14.2932 14.2065 14.6663 14.6668 14.6663C15.127 14.6663 15.5001 14.2932 15.5001 13.8329V10.4996C15.5001 10.0394 15.127 9.66628 14.6668 9.66628H14.2694C14.2567 9.66599 14.2441 9.66599 14.2315 9.66628H11.3334C10.8732 9.66628 10.5001 10.0394 10.5001 10.4996C10.5001 10.9599 10.8732 11.3329 11.3334 11.3329H12.8408C12.3518 12.0205 11.7183 12.5998 10.9789 13.027C9.85517 13.6762 8.54914 13.9379 7.26202 13.7718C5.9749 13.6058 4.77809 13.0211 3.85594 12.1079C2.9338 11.1947 2.33748 10.0037 2.15884 8.71824Z" fill="#282829"/>
</svg>
