<svg width="64" height="64" viewBox="0 0 64 64" fill="none" xmlns="http://www.w3.org/2000/svg">
<path d="M26.208 29.2136L32 26.1823L37.792 29.2136C37.9638 29.3047 38.1578 29.3458 38.3518 29.3322C38.5458 29.3187 38.7321 29.251 38.8896 29.1368C39.0471 29.0227 39.1694 28.8667 39.2426 28.6865C39.3159 28.5063 39.3372 28.3092 39.304 28.1176L38.2 21.6909L42.8854 17.1389C43.0242 17.0033 43.1223 16.8315 43.1686 16.643C43.2149 16.4546 43.2075 16.2569 43.1473 16.0724C43.0871 15.8879 42.9764 15.7239 42.8279 15.599C42.6793 15.4741 42.4988 15.3932 42.3067 15.3656L35.832 14.4269L32.936 8.57893C32.8494 8.40475 32.7159 8.2582 32.5506 8.15575C32.3852 8.0533 32.1945 7.99902 32 7.99902C31.8055 7.99902 31.6148 8.0533 31.4495 8.15575C31.2841 8.2582 31.1506 8.40475 31.064 8.57893L28.168 14.4269L21.6933 15.3656C21.5007 15.3923 21.3194 15.4726 21.1702 15.5974C21.021 15.7222 20.9099 15.8864 20.8495 16.0713C20.7892 16.2562 20.782 16.4544 20.8289 16.6432C20.8758 16.8319 20.9748 17.0037 21.1147 17.1389L25.8 21.6909L24.6934 28.1203C24.6626 28.3116 24.6856 28.5077 24.7598 28.6867C24.834 28.8657 24.9565 29.0205 25.1136 29.1339C25.2707 29.2473 25.4563 29.3148 25.6495 29.3289C25.8428 29.343 26.0361 29.3031 26.208 29.2136Z" stroke="#2A8BA3" stroke-width="3" stroke-linecap="round" stroke-linejoin="round"/>
<path d="M11.228 56.1237L17.0201 53.0924L22.812 56.1237C22.9839 56.2149 23.1778 56.256 23.3718 56.2424C23.5658 56.2288 23.7521 56.1611 23.9096 56.047C24.0671 55.9328 24.1894 55.7768 24.2626 55.5967C24.3359 55.4165 24.3572 55.2194 24.324 55.0278L23.22 48.6011L27.9054 44.0491C28.0442 43.9135 28.1423 43.7417 28.1886 43.5532C28.2349 43.3647 28.2275 43.167 28.1673 42.9825C28.1071 42.798 27.9965 42.634 27.8479 42.5091C27.6994 42.3842 27.5188 42.3034 27.3267 42.2757L20.852 41.3371L17.956 35.4891C17.8694 35.3149 17.7359 35.1684 17.5706 35.0659C17.4052 34.9635 17.2146 34.9092 17.02 34.9092C16.8255 34.9092 16.6349 34.9635 16.4695 35.0659C16.3041 35.1684 16.1706 35.3149 16.084 35.4891L13.188 41.3371L6.71337 42.2757C6.5207 42.3024 6.33941 42.3828 6.1902 42.5075C6.04099 42.6323 5.92988 42.7966 5.86954 42.9815C5.80919 43.1664 5.80206 43.3645 5.84895 43.5533C5.89583 43.7421 5.99485 43.9139 6.1347 44.0491L10.82 48.6011L9.71337 55.0304C9.68258 55.2217 9.70558 55.4178 9.77979 55.5968C9.854 55.7758 9.9765 55.9307 10.1336 56.0441C10.2907 56.1575 10.4763 56.225 10.6695 56.2391C10.8628 56.2531 11.0562 56.2132 11.228 56.1237Z" stroke="#2A8BA3" stroke-width="3" stroke-linecap="round" stroke-linejoin="round"/>
<path d="M41.7734 56.1237L47.5655 53.0924L53.3574 56.1237C53.5293 56.2149 53.7232 56.256 53.9172 56.2424C54.1112 56.2288 54.2976 56.1611 54.455 56.047C54.6125 55.9328 54.7348 55.7768 54.8081 55.5967C54.8813 55.4165 54.9026 55.2194 54.8694 55.0278L53.7654 48.6011L58.4508 44.0491C58.5896 43.9135 58.6877 43.7417 58.734 43.5532C58.7803 43.3647 58.7729 43.167 58.7127 42.9825C58.6525 42.798 58.5419 42.634 58.3933 42.5091C58.2448 42.3842 58.0642 42.3034 57.8721 42.2757L51.3974 41.3371L48.5014 35.4891C48.4148 35.3149 48.2813 35.1684 48.116 35.0659C47.9506 34.9635 47.76 34.9092 47.5654 34.9092C47.3709 34.9092 47.1803 34.9635 47.0149 35.0659C46.8495 35.1684 46.7161 35.3149 46.6294 35.4891L43.7334 41.3371L37.2588 42.2757C37.0661 42.3024 36.8848 42.3828 36.7356 42.5075C36.5864 42.6323 36.4753 42.7966 36.4149 42.9815C36.3546 43.1664 36.3475 43.3645 36.3944 43.5533C36.4412 43.7421 36.5403 43.9139 36.6801 44.0491L41.3654 48.6011L40.2588 55.0304C40.228 55.2217 40.251 55.4178 40.3252 55.5968C40.3994 55.7758 40.5219 55.9307 40.679 56.0441C40.8361 56.1575 41.0217 56.225 41.2149 56.2391C41.4082 56.2531 41.6016 56.2132 41.7734 56.1237Z" stroke="#2A8BA3" stroke-width="3" stroke-linecap="round" stroke-linejoin="round"/>
</svg>
