<svg width="20" height="20" viewBox="0 0 20 20" fill="none" xmlns="http://www.w3.org/2000/svg">
<path fill-rule="evenodd" clip-rule="evenodd" d="M10.7071 0.292893C10.3166 -0.0976311 9.68345 -0.0976311 9.29292 0.292893L0.292922 9.29289C0.00692445 9.57889 -0.0786313 10.009 0.0761497 10.3827C0.230931 10.7564 0.595567 11 1.00003 11H2.00003V17C2.00003 17.7957 2.3161 18.5587 2.87871 19.1213C3.44132 19.6839 4.20438 20 5.00003 20H15C15.7957 20 16.5587 19.6839 17.1214 19.1213C17.684 18.5587 18 17.7957 18 17V11H19C19.4045 11 19.7691 10.7564 19.9239 10.3827C20.0787 10.009 19.9931 9.57889 19.7071 9.29289L10.7071 0.292893ZM16.6469 9.06413C16.6477 9.06385 16.6484 9.06358 16.6491 9.0633L10 2.41421L3.35094 9.0633C3.73013 9.20542 4.00003 9.57119 4.00003 10V17C4.00003 17.2652 4.10539 17.5196 4.29292 17.7071C4.48046 17.8946 4.73481 18 5.00003 18H15C15.2652 18 15.5196 17.8946 15.7071 17.7071C15.8947 17.5196 16 17.2652 16 17V10C16 9.57202 16.2689 9.20683 16.6469 9.06413Z" fill="#0D0D0E"/>
</svg>
