<svg width="24" height="24" viewBox="0 0 24 24" fill="none" xmlns="http://www.w3.org/2000/svg">
<path fill-rule="evenodd" clip-rule="evenodd" d="M12 24C18.6274 24 24 18.6274 24 12C24 5.37258 18.6274 0 12 0C5.37258 0 0 5.37258 0 12C0 18.6274 5.37258 24 12 24ZM10.5602 15.9963C10.6613 16.0381 10.7697 16.0595 10.8791 16.0592C10.9885 16.0595 11.0968 16.0381 11.1979 15.9963C11.299 15.9546 11.3909 15.8933 11.4683 15.8159L17.3616 9.92257C17.5178 9.7662 17.6056 9.55417 17.6055 9.33311C17.6054 9.11205 17.5175 8.90008 17.3612 8.74382C17.2048 8.58756 16.9928 8.49982 16.7717 8.4999C16.5507 8.49998 16.3387 8.58787 16.1824 8.74424L10.8783 14.0467L7.93242 11.1009C7.85549 11.0214 7.76349 10.9579 7.66179 10.9143C7.56009 10.8707 7.45073 10.8478 7.34008 10.847C7.22943 10.8461 7.11971 10.8672 7.01733 10.9092C6.91495 10.9512 6.82195 11.0131 6.74376 11.0914C6.66557 11.1697 6.60376 11.2628 6.56193 11.3653C6.5201 11.4677 6.4991 11.5774 6.50013 11.6881C6.50117 11.7987 6.52424 11.9081 6.56798 12.0097C6.61173 12.1113 6.67528 12.2033 6.75492 12.2801L10.2899 15.8159C10.3673 15.8933 10.4591 15.9546 10.5602 15.9963Z" fill="white"/>
</svg>
