<svg width="24" height="24" viewBox="0 0 24 24" fill="none" xmlns="http://www.w3.org/2000/svg">
<path d="M13.4447 11.8663L17.3907 7.91919C17.4973 7.81622 17.5824 7.69304 17.6409 7.55685C17.6994 7.42066 17.7302 7.27419 17.7315 7.12597C17.7328 6.97775 17.7045 6.83076 17.6484 6.69358C17.5923 6.55639 17.5094 6.43176 17.4046 6.32695C17.2998 6.22214 17.1751 6.13925 17.0379 6.08312C16.9008 6.027 16.7538 5.99875 16.6055 6.00004C16.4573 6.00133 16.3109 6.03212 16.1747 6.09063C16.0385 6.14913 15.9153 6.23417 15.8123 6.34078L11.8652 10.2868L7.91919 6.34078C7.81622 6.23417 7.69304 6.14913 7.55685 6.09063C7.42066 6.03212 7.27419 6.00133 7.12597 6.00004C6.97775 5.99875 6.83076 6.027 6.69358 6.08312C6.55639 6.13925 6.43176 6.22214 6.32695 6.32695C6.22214 6.43176 6.13925 6.55639 6.08312 6.69358C6.027 6.83076 5.99875 6.97775 6.00004 7.12597C6.00133 7.27419 6.03212 7.42066 6.09063 7.55685C6.14913 7.69304 6.23417 7.81622 6.34078 7.91919L10.2868 11.8652L6.34078 15.8123C6.23417 15.9153 6.14913 16.0385 6.09063 16.1747C6.03212 16.3109 6.00133 16.4573 6.00004 16.6055C5.99875 16.7538 6.027 16.9008 6.08312 17.0379C6.13925 17.1751 6.22214 17.2998 6.32695 17.4046C6.43176 17.5094 6.55639 17.5923 6.69358 17.6484C6.83076 17.7045 6.97775 17.7328 7.12597 17.7315C7.27419 17.7302 7.42066 17.6994 7.55685 17.6409C7.69304 17.5824 7.81622 17.4973 7.91919 17.3907L11.8652 13.4447L15.8123 17.3907C15.9153 17.4973 16.0385 17.5824 16.1747 17.6409C16.3109 17.6994 16.4573 17.7302 16.6055 17.7315C16.7538 17.7328 16.9008 17.7045 17.0379 17.6484C17.1751 17.5923 17.2998 17.5094 17.4046 17.4046C17.5094 17.2998 17.5923 17.1751 17.6484 17.0379C17.7045 16.9008 17.7328 16.7538 17.7315 16.6055C17.7302 16.4573 17.6994 16.3109 17.6409 16.1747C17.5824 16.0385 17.4973 15.9153 17.3907 15.8123L13.4447 11.8652V11.8663Z" fill="white"/>
</svg>
