<svg width="28" height="22" viewBox="0 0 28 22" fill="none" xmlns="http://www.w3.org/2000/svg">
<path fill-rule="evenodd" clip-rule="evenodd" d="M3.48275 3.71909C3.70486 3.29165 4.15166 2.99967 4.66665 2.99967H23.3333C23.8483 2.99967 24.2951 3.29164 24.5172 3.71908L14 10.7306L3.48275 3.71909ZM0.666734 4.30702C0.666458 4.32191 0.66643 4.3368 0.666651 4.35167V17.6663C0.666651 19.8755 2.45751 21.6663 4.66665 21.6663H23.3333C25.5425 21.6663 27.3333 19.8755 27.3333 17.6663V4.35079C27.3335 4.33657 27.3335 4.32233 27.3332 4.30809C27.3198 2.11042 25.5341 0.333008 23.3333 0.333008H4.66665C2.46618 0.333008 0.680713 2.10984 0.666734 4.30702ZM24.6667 6.82439V17.6663C24.6667 18.4027 24.0697 18.9997 23.3333 18.9997H4.66665C3.93027 18.9997 3.33332 18.4027 3.33332 17.6663V6.8244L13.2604 13.4424C13.7082 13.741 14.2917 13.741 14.7396 13.4424L24.6667 6.82439Z" fill="#505154"/>
</svg>
