<svg width="28" height="28" viewBox="0 0 28 28" fill="none" xmlns="http://www.w3.org/2000/svg">
<path fill-rule="evenodd" clip-rule="evenodd" d="M16.0341 0.866126C16.4272 1.10907 16.6665 1.53822 16.6665 2.00033V6.62012L24.0728 11.5576C24.4437 11.8049 24.6665 12.2212 24.6665 12.667V24.667H25.9998C26.7362 24.667 27.3332 25.2639 27.3332 26.0003C27.3332 26.7367 26.7362 27.3337 25.9998 27.3337H23.3434L23.3332 27.3337L23.323 27.3337H15.3354L15.3332 27.3337L15.3309 27.3337H4.66878L4.6665 27.3337L4.66422 27.3337H1.99984C1.26346 27.3337 0.666504 26.7367 0.666504 26.0003C0.666504 25.2639 1.26346 24.667 1.99984 24.667H3.33317V7.33366C3.33317 6.82863 3.61851 6.36695 4.07022 6.14109L14.7369 0.807757C15.1502 0.601098 15.6411 0.623184 16.0341 0.866126ZM21.9998 24.667V13.3806L16.6665 9.82505V24.667H21.9998ZM13.9998 7.31273C13.9996 7.3259 13.9996 7.33905 13.9998 7.3522V24.667H5.99984V8.15771L13.9998 4.15771V7.31273ZM9.99984 8.66699C10.7362 8.66699 11.3332 9.26395 11.3332 10.0003V10.0137C11.3332 10.75 10.7362 11.347 9.99984 11.347C9.26346 11.347 8.6665 10.75 8.6665 10.0137V10.0003C8.6665 9.26395 9.26346 8.66699 9.99984 8.66699ZM11.3332 14.0003C11.3332 13.2639 10.7362 12.667 9.99984 12.667C9.26346 12.667 8.6665 13.2639 8.6665 14.0003V14.0137C8.6665 14.75 9.26346 15.347 9.99984 15.347C10.7362 15.347 11.3332 14.75 11.3332 14.0137V14.0003ZM9.99984 16.667C10.7362 16.667 11.3332 17.2639 11.3332 18.0003V18.0137C11.3332 18.75 10.7362 19.347 9.99984 19.347C9.26346 19.347 8.6665 18.75 8.6665 18.0137V18.0003C8.6665 17.2639 9.26346 16.667 9.99984 16.667ZM11.3332 22.0003C11.3332 21.2639 10.7362 20.667 9.99984 20.667C9.26346 20.667 8.6665 21.2639 8.6665 22.0003V22.0137C8.6665 22.75 9.26346 23.347 9.99984 23.347C10.7362 23.347 11.3332 22.75 11.3332 22.0137V22.0003Z" fill="#505154"/>
</svg>
