<svg width="20" height="20" viewBox="0 0 20 20" fill="none" xmlns="http://www.w3.org/2000/svg">
<path d="M14.1659 1.67046L12.0047 1.66699C9.57656 1.66699 8.00741 3.27691 8.00741 5.76868V7.65984H5.83435C5.64657 7.65984 5.49451 7.81207 5.49451 7.99985V10.7399C5.49451 10.9277 5.64674 11.0798 5.83435 11.0798H8.00741V17.9938C8.00741 18.1816 8.15947 18.3337 8.34725 18.3337H11.1825C11.3703 18.3337 11.5223 18.1814 11.5223 17.9938V11.0798H14.0631C14.2509 11.0798 14.403 10.9277 14.403 10.7399L14.404 7.99985C14.404 7.90969 14.3681 7.82334 14.3045 7.75953C14.2409 7.69573 14.1542 7.65984 14.064 7.65984H11.5223V6.05668C11.5223 5.28614 11.7059 4.89497 12.7097 4.89497L14.1656 4.89445C14.3532 4.89445 14.5053 4.74222 14.5053 4.55461V2.0103C14.5053 1.82287 14.3534 1.67081 14.1659 1.67046Z" fill="white"/>
</svg>
