<svg width="64" height="64" viewBox="0 0 64 64" fill="none" xmlns="http://www.w3.org/2000/svg">
<path d="M26.2075 29.2136L31.9996 26.1823L37.7915 29.2136C37.9634 29.3047 38.1573 29.3458 38.3513 29.3322C38.5453 29.3187 38.7316 29.251 38.8891 29.1368C39.0466 29.0227 39.1689 28.8667 39.2421 28.6865C39.3154 28.5063 39.3367 28.3092 39.3035 28.1176L38.1995 21.6909L42.8849 17.1389C43.0237 17.0033 43.1218 16.8315 43.1681 16.643C43.2144 16.4546 43.207 16.2569 43.1468 16.0724C43.0866 15.8879 42.976 15.7239 42.8274 15.599C42.6788 15.4741 42.4983 15.3932 42.3062 15.3656L35.8315 14.4269L32.9355 8.57893C32.8489 8.40475 32.7154 8.2582 32.5501 8.15575C32.3847 8.0533 32.194 7.99902 31.9995 7.99902C31.805 7.99902 31.6143 8.0533 31.449 8.15575C31.2836 8.2582 31.1501 8.40475 31.0635 8.57893L28.1675 14.4269L21.6929 15.3656C21.5002 15.3923 21.3189 15.4726 21.1697 15.5974C21.0205 15.7222 20.9094 15.8864 20.849 16.0713C20.7887 16.2562 20.7816 16.4544 20.8284 16.6432C20.8753 16.8319 20.9743 17.0037 21.1142 17.1389L25.7995 21.6909L24.6929 28.1203C24.6621 28.3116 24.6851 28.5077 24.7593 28.6867C24.8335 28.8657 24.956 29.0205 25.1131 29.1339C25.2702 29.2473 25.4558 29.3148 25.649 29.3289C25.8423 29.343 26.0356 29.3031 26.2075 29.2136Z" stroke="#2A8BA3" stroke-width="3" stroke-linecap="round" stroke-linejoin="round"/>
<path d="M11.228 56.1237L17.0201 53.0924L22.812 56.1237C22.9839 56.2149 23.1778 56.256 23.3718 56.2424C23.5658 56.2288 23.7521 56.1611 23.9096 56.047C24.0671 55.9328 24.1894 55.7768 24.2626 55.5967C24.3359 55.4165 24.3572 55.2194 24.324 55.0278L23.22 48.6011L27.9054 44.0491C28.0442 43.9135 28.1423 43.7417 28.1886 43.5532C28.2349 43.3647 28.2275 43.167 28.1673 42.9825C28.1071 42.798 27.9965 42.634 27.8479 42.5091C27.6994 42.3842 27.5188 42.3034 27.3267 42.2757L20.852 41.3371L17.956 35.4891C17.8694 35.3149 17.7359 35.1684 17.5706 35.0659C17.4052 34.9635 17.2146 34.9092 17.02 34.9092C16.8255 34.9092 16.6349 34.9635 16.4695 35.0659C16.3041 35.1684 16.1706 35.3149 16.084 35.4891L13.188 41.3371L6.71337 42.2757C6.5207 42.3024 6.33941 42.3828 6.1902 42.5075C6.04099 42.6323 5.92988 42.7966 5.86954 42.9815C5.80919 43.1664 5.80206 43.3645 5.84895 43.5533C5.89583 43.7421 5.99485 43.9139 6.1347 44.0491L10.82 48.6011L9.71337 55.0304C9.68258 55.2217 9.70558 55.4178 9.77979 55.5968C9.854 55.7758 9.9765 55.9307 10.1336 56.0441C10.2907 56.1575 10.4763 56.225 10.6695 56.2391C10.8628 56.2531 11.0562 56.2132 11.228 56.1237Z" stroke="#2A8BA3" stroke-width="3" stroke-linecap="round" stroke-linejoin="round"/>
<path d="M41.773 56.1237L47.565 53.0924L53.357 56.1237C53.5288 56.2149 53.7227 56.256 53.9167 56.2424C54.1107 56.2288 54.2971 56.1611 54.4545 56.047C54.612 55.9328 54.7343 55.7768 54.8076 55.5967C54.8808 55.4165 54.9021 55.2194 54.869 55.0278L53.765 48.6011L58.4503 44.0491C58.5891 43.9135 58.6872 43.7417 58.7335 43.5532C58.7798 43.3647 58.7724 43.167 58.7122 42.9825C58.652 42.798 58.5414 42.634 58.3928 42.5091C58.2443 42.3842 58.0637 42.3034 57.8716 42.2757L51.397 41.3371L48.501 35.4891C48.4143 35.3149 48.2809 35.1684 48.1155 35.0659C47.9501 34.9635 47.7595 34.9092 47.565 34.9092C47.3704 34.9092 47.1798 34.9635 47.0144 35.0659C46.8491 35.1684 46.7156 35.3149 46.629 35.4891L43.733 41.3371L37.2583 42.2757C37.0656 42.3024 36.8843 42.3828 36.7351 42.5075C36.5859 42.6323 36.4748 42.7966 36.4145 42.9815C36.3541 43.1664 36.347 43.3645 36.3939 43.5533C36.4408 43.7421 36.5398 43.9139 36.6796 44.0491L41.365 48.6011L40.2583 55.0304C40.2275 55.2217 40.2505 55.4178 40.3247 55.5968C40.3989 55.7758 40.5214 55.9307 40.6785 56.0441C40.8356 56.1575 41.0212 56.225 41.2144 56.2391C41.4077 56.2531 41.6011 56.2132 41.773 56.1237Z" stroke="#2A8BA3" stroke-width="3" stroke-linecap="round" stroke-linejoin="round"/>
</svg>
