<svg width="20" height="20" viewBox="0 0 20 20" fill="none" xmlns="http://www.w3.org/2000/svg">
<path fill-rule="evenodd" clip-rule="evenodd" d="M11.2718 1.79145C11.5174 1.94329 11.667 2.21151 11.667 2.50033V5.38765L16.2959 8.4736C16.5277 8.62815 16.667 8.88835 16.667 9.16697V16.667H17.5003C17.9606 16.667 18.3337 17.0401 18.3337 17.5003C18.3337 17.9606 17.9606 18.3337 17.5003 18.3337H10.8362L10.8337 18.3337L10.8311 18.3337H4.16954L4.16699 18.3337L4.16444 18.3337H2.50033C2.04009 18.3337 1.66699 17.9606 1.66699 17.5003C1.66699 17.0401 2.04009 16.667 2.50033 16.667H3.33366V5.83366C3.33366 5.51802 3.51199 5.22946 3.79431 5.0883L10.461 1.75497C10.7193 1.62581 11.0261 1.63961 11.2718 1.79145ZM15.0003 16.667V9.61296L11.667 7.39074V16.667H15.0003ZM10.0003 5.82101C10.0002 5.82892 10.0002 5.83684 10.0003 5.84474V16.667H5.00033V6.34869L10.0003 3.84869V5.82101ZM7.50033 6.66699C7.96056 6.66699 8.33366 7.04009 8.33366 7.50033V7.50866C8.33366 7.9689 7.96056 8.34199 7.50033 8.34199C7.04009 8.34199 6.66699 7.9689 6.66699 7.50866V7.50033C6.66699 7.04009 7.04009 6.66699 7.50033 6.66699ZM8.33366 10.0003C8.33366 9.54009 7.96056 9.16699 7.50033 9.16699C7.04009 9.16699 6.66699 9.54009 6.66699 10.0003V10.0087C6.66699 10.4689 7.04009 10.842 7.50033 10.842C7.96056 10.842 8.33366 10.4689 8.33366 10.0087V10.0003ZM7.50033 11.667C7.96056 11.667 8.33366 12.0401 8.33366 12.5003V12.5087C8.33366 12.9689 7.96056 13.342 7.50033 13.342C7.04009 13.342 6.66699 12.9689 6.66699 12.5087V12.5003C6.66699 12.0401 7.04009 11.667 7.50033 11.667ZM8.33366 15.0003C8.33366 14.5401 7.96056 14.167 7.50033 14.167C7.04009 14.167 6.66699 14.5401 6.66699 15.0003V15.0087C6.66699 15.4689 7.04009 15.842 7.50033 15.842C7.96056 15.842 8.33366 15.4689 8.33366 15.0087V15.0003Z" fill="#505154"/>
</svg>
