<svg width="20" height="20" viewBox="0 0 20 20" fill="none" xmlns="http://www.w3.org/2000/svg">
<path fill-rule="evenodd" clip-rule="evenodd" d="M7.49967 1.66699C5.19849 1.66699 3.33301 3.53247 3.33301 5.83366C3.33301 8.13485 5.19849 10.0003 7.49967 10.0003C9.80086 10.0003 11.6663 8.13485 11.6663 5.83366C11.6663 3.53247 9.80086 1.66699 7.49967 1.66699ZM4.99967 5.83366C4.99967 4.45295 6.11896 3.33366 7.49967 3.33366C8.88039 3.33366 9.99967 4.45295 9.99967 5.83366C9.99967 7.21437 8.88039 8.33366 7.49967 8.33366C6.11896 8.33366 4.99967 7.21437 4.99967 5.83366Z" fill="#505154"/>
<path d="M3.23191 14.0659C3.70075 13.5971 4.33663 13.3337 4.99967 13.3337H9.99967C10.6627 13.3337 11.2986 13.5971 11.7674 14.0659C12.2363 14.5347 12.4997 15.1706 12.4997 15.8337V17.5003C12.4997 17.9606 12.8728 18.3337 13.333 18.3337C13.7932 18.3337 14.1663 17.9606 14.1663 17.5003V15.8337C14.1663 14.7286 13.7274 13.6688 12.946 12.8874C12.1646 12.106 11.1047 11.667 9.99967 11.667H4.99967C3.89461 11.667 2.8348 12.106 2.0534 12.8874C1.27199 13.6688 0.833008 14.7286 0.833008 15.8337V17.5003C0.833008 17.9606 1.2061 18.3337 1.66634 18.3337C2.12658 18.3337 2.49967 17.9606 2.49967 17.5003V15.8337C2.49967 15.1706 2.76307 14.5347 3.23191 14.0659Z" fill="#505154"/>
<path d="M12.5257 2.40186C12.6399 1.95601 13.0939 1.68711 13.5397 1.80127C14.436 2.03075 15.2304 2.552 15.7977 3.28284C16.365 4.01369 16.6729 4.91255 16.6729 5.83773C16.6729 6.76291 16.365 7.66177 15.7977 8.39261C15.2304 9.12346 14.436 9.64471 13.5397 9.87419C13.0939 9.98834 12.6399 9.71945 12.5257 9.27359C12.4116 8.82774 12.6805 8.37376 13.1263 8.2596C13.6641 8.12192 14.1407 7.80917 14.4811 7.37066C14.8215 6.93215 15.0062 6.39283 15.0062 5.83773C15.0062 5.28262 14.8215 4.7433 14.4811 4.3048C14.1407 3.86629 13.6641 3.55354 13.1263 3.41585C12.6805 3.3017 12.4116 2.84772 12.5257 2.40186Z" fill="#505154"/>
<path d="M15.208 11.8185C14.7624 11.7034 14.3079 11.9714 14.1928 12.417C14.0777 12.8627 14.3457 13.3172 14.7914 13.4322C15.3256 13.5702 15.7992 13.881 16.1384 14.3162C16.4771 14.7509 16.6627 15.2853 16.6663 15.8363V17.5003C16.6663 17.9606 17.0394 18.3337 17.4997 18.3337C17.9599 18.3337 18.333 17.9606 18.333 17.5003L18.333 15.8337L18.333 15.8289C18.3277 14.9093 18.0183 14.0172 17.4531 13.2918C16.8878 12.5664 16.0984 12.0484 15.208 11.8185Z" fill="#505154"/>
</svg>
