<svg width="20" height="20" viewBox="0 0 20 20" fill="none" xmlns="http://www.w3.org/2000/svg">
<path fill-rule="evenodd" clip-rule="evenodd" d="M4.16699 4.16667C3.94598 4.16667 3.73402 4.25446 3.57774 4.41074C3.4265 4.56198 3.33939 4.76537 3.33393 4.97864C3.52559 8.01525 4.81832 10.8781 6.97027 13.0301C9.12223 15.182 11.9851 16.4747 15.0217 16.6664C15.235 16.6609 15.4383 16.5738 15.5896 16.4226C15.7459 16.2663 15.8337 16.0543 15.8337 15.8333V13.0642L12.8498 11.8706L11.9649 13.3454C11.7418 13.7173 11.2707 13.8559 10.8817 13.6641C8.90761 12.6905 7.30987 11.0927 6.33628 9.1186C6.14445 8.72963 6.28302 8.25856 6.65491 8.03542L8.12969 7.15056L6.93613 4.16667H4.16699ZM2.39923 3.23223C2.86807 2.76339 3.50395 2.5 4.16699 2.5H7.50033C7.84108 2.5 8.1475 2.70746 8.27406 3.02384L9.94072 7.19051C10.0926 7.57027 9.94647 8.00414 9.59574 8.21458L8.20074 9.05158C8.88729 10.1713 9.82906 11.113 10.9487 11.7996L11.7857 10.4046C11.9962 10.0539 12.4301 9.9077 12.8098 10.0596L16.9765 11.7263C17.2929 11.8528 17.5003 12.1592 17.5003 12.5V15.8333C17.5003 16.4964 17.2369 17.1323 16.7681 17.6011C16.2993 18.0699 15.6634 18.3333 15.0003 18.3333C14.9835 18.3333 14.9666 18.3328 14.9498 18.3318C11.496 18.1219 8.23845 16.6553 5.79176 14.2086C3.34507 11.7619 1.87841 8.50433 1.66853 5.05055C1.6675 5.03372 1.66699 5.01686 1.66699 5C1.66699 4.33696 1.93038 3.70107 2.39923 3.23223Z" fill="#505154"/>
</svg>
