<svg width="16" height="18" viewBox="0 0 16 18" fill="none" xmlns="http://www.w3.org/2000/svg">
<path fill-rule="evenodd" clip-rule="evenodd" d="M8 0.666016C5.69881 0.666016 3.83333 2.5315 3.83333 4.83268C3.83333 7.13387 5.69881 8.99935 8 8.99935C10.3012 8.99935 12.1667 7.13387 12.1667 4.83268C12.1667 2.5315 10.3012 0.666016 8 0.666016ZM5.5 4.83268C5.5 3.45197 6.61929 2.33268 8 2.33268C9.38071 2.33268 10.5 3.45197 10.5 4.83268C10.5 6.21339 9.38071 7.33268 8 7.33268C6.61929 7.33268 5.5 6.21339 5.5 4.83268Z" fill="#505154"/>
<path d="M2.8989 13.0649C3.36774 12.5961 4.00363 12.3327 4.66667 12.3327H11.3333C11.9964 12.3327 12.6323 12.5961 13.1011 13.0649C13.5699 13.5338 13.8333 14.1696 13.8333 14.8327V16.4993C13.8333 16.9596 14.2064 17.3327 14.6667 17.3327C15.1269 17.3327 15.5 16.9596 15.5 16.4993V14.8327C15.5 13.7276 15.061 12.6678 14.2796 11.8864C13.4982 11.105 12.4384 10.666 11.3333 10.666H4.66667C3.5616 10.666 2.50179 11.105 1.72039 11.8864C0.938987 12.6678 0.5 13.7276 0.5 14.8327V16.4993C0.5 16.9596 0.873096 17.3327 1.33333 17.3327C1.79357 17.3327 2.16667 16.9596 2.16667 16.4993V14.8327C2.16667 14.1696 2.43006 13.5338 2.8989 13.0649Z" fill="#505154"/>
</svg>
