<svg width="20" height="20" viewBox="0 0 20 20" fill="none" xmlns="http://www.w3.org/2000/svg">
<path d="M8.10992 14.2374L11.2316 11.1149L12.0874 11.2674C12.9606 11.424 13.8611 11.2977 14.6576 10.9071C15.4541 10.5164 16.1051 9.88175 16.5159 9.09543C16.9267 8.3091 17.0758 7.41219 16.9415 6.53526C16.8071 5.65833 16.3964 4.84716 15.7691 4.21985C15.1418 3.59253 14.3306 3.18182 13.4537 3.04749C12.5768 2.91317 11.6799 3.06225 10.8935 3.47304C10.1072 3.88382 9.47252 4.53486 9.08187 5.33138C8.69122 6.1279 8.565 7.02831 8.72159 7.90154L8.87492 8.75821L3.04659 14.5865L3.19409 16.7957L5.40325 16.9432L6.93075 15.4157L6.34159 14.8265C6.18533 14.6702 6.09759 14.4581 6.09767 14.2371C6.09774 14.016 6.18563 13.804 6.342 13.6478C6.49837 13.4915 6.7104 13.4038 6.93146 13.4039C7.15252 13.404 7.3645 13.4918 7.52075 13.6482L8.10992 14.2374ZM8.69909 3.04154C9.40837 2.33226 10.2886 1.81786 11.2547 1.54803C12.2208 1.2782 13.2402 1.26205 14.2143 1.50115C15.1885 1.74025 16.0845 2.22651 16.8159 2.91297C17.5473 3.59944 18.0894 4.46291 18.3897 5.41998C18.69 6.37706 18.7384 7.3954 18.5303 8.37665C18.3221 9.3579 17.8645 10.2689 17.2015 11.0217C16.5386 11.7745 15.6927 12.3436 14.7457 12.674C13.7986 13.0045 12.7823 13.0851 11.7949 12.9082L6.04742 18.6565L2.35575 18.4107C2.15414 18.3974 1.96423 18.3113 1.82136 18.1684C1.67848 18.0256 1.59239 17.8357 1.57909 17.634L1.33325 13.9424L7.08158 8.19404C6.91527 7.26849 6.97545 6.31644 7.25697 5.4192C7.53849 4.52195 8.033 3.70618 8.69825 3.04154H8.69909ZM12.2341 7.75488C11.9216 7.44225 11.746 7.01829 11.7461 6.57625C11.7462 6.13421 11.9219 5.71031 12.2345 5.39779C12.5471 5.08528 12.9711 4.90975 13.4131 4.90983C13.8552 4.90991 14.2791 5.08559 14.5916 5.39821C14.9041 5.71083 15.0796 6.1348 15.0795 6.57684C15.0795 7.01888 14.9038 7.44278 14.5912 7.75529C14.2785 8.06781 13.8546 8.24333 13.4125 8.24325C12.9705 8.24317 12.5466 8.0675 12.2341 7.75488Z" fill="#4D5C4E"/>
</svg>
