<svg width="210" height="51" viewBox="0 0 210 51" fill="none" xmlns="http://www.w3.org/2000/svg">
<g clip-path="url(#clip0)">
<path fill-rule="evenodd" clip-rule="evenodd" d="M46.9746 13.048H51.2959V16.9791C52.6642 15.4066 54.247 14.2426 56.0437 13.4876C57.8424 12.7326 59.8974 12.3555 62.2113 12.3555C64.7561 12.3555 67.0224 12.8269 69.009 13.7712C70.9961 14.7147 72.5679 16.068 73.7255 17.8283C74.525 19.0671 75.0977 20.5179 75.4446 22.1846C75.7922 23.8526 75.9657 26.3114 75.9657 29.5609V47.6488H71.5798V28.272C71.5798 24.1823 70.7966 21.2164 69.2307 19.3708C67.6629 17.5259 65.1553 16.6019 61.7072 16.6019C59.6874 16.6019 57.9161 17.007 56.3907 17.8134C54.8653 18.6197 53.6633 19.7799 52.779 21.2879C52.2324 22.2328 51.8483 23.3077 51.6285 24.512C51.4068 25.7177 51.2959 27.8207 51.2959 30.8186V47.6488H46.9746V13.048Z" fill="#505154"/>
<path fill-rule="evenodd" clip-rule="evenodd" d="M86.647 47.6467H91.0941V13.0479H86.647V47.6467Z" fill="#505154"/>
<path fill-rule="evenodd" clip-rule="evenodd" d="M124.775 13.0479L113.577 40.948L102.473 13.0479H97.7729L111.337 47.6467H115.407L129.602 13.0479H124.775Z" fill="#505154"/>
<path fill-rule="evenodd" clip-rule="evenodd" d="M136.151 2.92969H140.535V18.1856C141.819 16.6125 143.359 15.429 145.158 14.6298C146.957 13.8344 148.969 13.4345 151.198 13.4345C156.077 13.4345 159.632 14.8248 161.861 17.6035C164.09 20.3816 165.205 24.8953 165.205 31.1446V48.7279H160.819V31.0822C160.819 26.0697 160.064 22.5828 158.548 20.6229C157.035 18.6622 154.5 17.6809 150.947 17.6809C148.927 17.6809 147.155 18.0861 145.63 18.8924C144.105 19.7007 142.903 20.8589 142.018 22.3689C141.472 23.3118 141.088 24.3867 140.868 25.593C140.646 26.7993 140.535 28.9004 140.535 31.8996V48.7279H136.151V2.92969Z" fill="#505154"/>
<path fill-rule="evenodd" clip-rule="evenodd" d="M205.13 30.1259C205.13 26.4563 203.815 23.2543 201.187 20.5179C198.558 17.7801 195.529 16.4119 192.101 16.4119C188.379 16.4119 185.21 17.7801 182.589 20.5179C179.973 23.2543 178.663 26.6456 178.663 30.6936C178.663 34.5512 179.967 37.8078 182.574 40.4597C185.182 43.1129 188.316 44.4369 191.976 44.4369C195.509 44.4369 198.583 43.0375 201.202 40.2386C203.82 37.4398 205.13 34.068 205.13 30.1259ZM205.13 42.1739C203.741 44.1664 201.865 45.7278 199.5 46.8599C197.134 47.9927 194.584 48.5598 191.849 48.5598C186.759 48.5598 182.521 46.8235 179.136 43.3522C175.749 39.8836 174.058 35.5988 174.058 30.5038C174.058 25.3235 175.787 20.9945 179.247 17.5129C182.705 14.0325 187.033 12.291 192.227 12.291C194.897 12.291 197.348 12.8321 199.577 13.9109C201.808 14.9923 203.658 16.5478 205.13 18.5826V13.048H209.482V47.6461H205.13V42.1739Z" fill="#505154"/>
<path fill-rule="evenodd" clip-rule="evenodd" d="M33.4028 20.0687C30.1204 15.451 24.7204 12.4336 18.6115 12.4336C11.1017 12.4336 4.65825 16.9908 1.91064 23.484C3.71717 28.4412 20.4004 24.6884 33.4028 20.0687Z" fill="#2A8BA3"/>
<path fill-rule="evenodd" clip-rule="evenodd" d="M33.4504 20.1357C20.4546 28.875 7.31132 32.4133 0.574365 28.7755C0.521539 29.3452 0.490234 29.9213 0.490234 30.5047C0.490234 30.8734 0.505887 31.2408 0.527408 31.6037C2.62741 39.4468 18.8704 35.8676 35.7109 24.6598C35.66 24.7086 35.8165 24.7184 35.7657 24.7671C24.2183 35.9515 12.2202 43.3206 4.2011 41.4549C5.52241 43.1821 7.14893 44.6635 9.00045 45.821C14.1383 47.0117 23.2452 44.6817 35.1924 30.4656C30.3637 40.8209 23.7109 46.7106 17.3659 48.5282C17.7787 48.5555 18.1935 48.575 18.6122 48.575C28.6218 48.575 36.7348 40.4847 36.7348 30.5047C36.7348 26.6465 35.5172 23.0712 33.4504 20.1357Z" fill="#2A8BA3"/>
<path fill-rule="evenodd" clip-rule="evenodd" d="M91.8994 3.02061C91.8994 4.68861 90.5429 6.04122 88.87 6.04122C87.1972 6.04122 85.8413 4.68861 85.8413 3.02061C85.8413 1.35196 87.1972 0 88.87 0C90.5429 0 91.8994 1.35196 91.8994 3.02061Z" fill="#2A8BA3"/>
</g>
<defs>
<clipPath id="clip0">
<rect width="210" height="51" fill="white"/>
</clipPath>
</defs>
</svg>
