<svg width="20" height="20" viewBox="0 0 20 20" fill="none" xmlns="http://www.w3.org/2000/svg">
<path fill-rule="evenodd" clip-rule="evenodd" d="M12.4133 2.01432C10.6994 1.49576 8.864 1.54305 7.17907 2.1492C5.49413 2.75534 4.04926 3.8881 3.05848 5.37967C2.06771 6.87124 1.58373 8.64228 1.67825 10.4304C1.77277 12.2186 2.44075 13.9287 3.58325 15.3075C4.72575 16.6863 6.28199 17.6605 8.02143 18.0856C9.76088 18.5108 11.591 18.3643 13.2407 17.6679C13.6647 17.489 13.8633 17.0001 13.6844 16.5761C13.5054 16.1521 13.0166 15.9535 12.5926 16.1325C11.2728 16.6896 9.8087 16.8067 8.41714 16.4666C7.02558 16.1265 5.78059 15.3472 4.86659 14.2441C3.95259 13.1411 3.41821 11.773 3.34259 10.3425C3.26698 8.91194 3.65416 7.49511 4.44678 6.30185C5.2394 5.1086 6.3953 4.20239 7.74325 3.71747C9.09119 3.23255 10.5595 3.19472 11.9306 3.60957C13.3017 4.02443 14.5028 4.8699 15.3558 6.02075C16.2088 7.1716 16.6685 8.56661 16.6666 9.99913V11.2502C16.6666 11.5817 16.5349 11.8997 16.3005 12.1341C16.0661 12.3685 15.7481 12.5002 15.4166 12.5002C15.0851 12.5002 14.7672 12.3685 14.5327 12.1341C14.2983 11.8997 14.1666 11.5817 14.1666 11.2502L14.1666 10.0001C14.1666 7.69894 12.3011 5.83346 9.99996 5.83346C7.69877 5.83346 5.83329 7.69894 5.83329 10.0001C5.83329 12.3013 7.69877 14.1668 9.99996 14.1668C11.1799 14.1668 12.2452 13.6763 13.0033 12.8882C13.1059 13.0393 13.2232 13.1816 13.3542 13.3126C13.9012 13.8596 14.6431 14.1669 15.4166 14.1669C16.1902 14.1669 16.932 13.8596 17.479 13.3126C18.026 12.7656 18.3333 12.0237 18.3333 11.2502V10.0013C18.3356 8.21062 17.761 6.46686 16.6948 5.0283C15.6285 3.58974 14.1272 2.53289 12.4133 2.01432ZM7.49996 10.0001C7.49996 8.61941 8.61925 7.50012 9.99996 7.50012C11.3807 7.50012 12.5 8.61941 12.5 10.0001C12.5 11.3808 11.3807 12.5001 9.99996 12.5001C8.61925 12.5001 7.49996 11.3808 7.49996 10.0001Z" fill="#4D5C4E"/>
</svg>
