<svg width="152" height="37" viewBox="0 0 152 37" fill="none" xmlns="http://www.w3.org/2000/svg">
<g clip-path="url(#clip0)">
<path fill-rule="evenodd" clip-rule="evenodd" d="M34.0006 9.44464H37.1284V12.29C38.1188 11.1518 39.2644 10.3093 40.5649 9.76283C41.8668 9.21636 43.3543 8.94336 45.0291 8.94336C46.871 8.94336 48.5114 9.28461 49.9493 9.96805C51.3876 10.651 52.5253 11.6305 53.3631 12.9047C53.9419 13.8013 54.3563 14.8514 54.6075 16.0578C54.8591 17.2651 54.9846 19.0448 54.9846 21.3968V34.489H51.8101V20.4639C51.8101 17.5038 51.2432 15.357 50.1098 14.0211C48.975 12.6858 47.1599 12.017 44.6642 12.017C43.2023 12.017 41.9202 12.3102 40.8161 12.8938C39.7119 13.4775 38.842 14.3172 38.2019 15.4087C37.8063 16.0926 37.5282 16.8707 37.3692 17.7424C37.2087 18.6151 37.1284 20.1373 37.1284 22.3071V34.489H34.0006V9.44464Z" fill="#505154"/>
<path fill-rule="evenodd" clip-rule="evenodd" d="M62.7156 34.4873H65.9345V9.44434H62.7156V34.4873Z" fill="#505154"/>
<path fill-rule="evenodd" clip-rule="evenodd" d="M90.313 9.44434L82.208 29.6387L74.1704 9.44434H70.7688L80.5865 34.4873H83.5325L93.8072 9.44434H90.313Z" fill="#505154"/>
<path fill-rule="evenodd" clip-rule="evenodd" d="M98.5475 2.12109H101.721V13.1634C102.65 12.0248 103.765 11.1682 105.066 10.5897C106.368 10.0141 107.825 9.72459 109.439 9.72459C112.97 9.72459 115.543 10.7309 117.156 12.7422C118.77 14.7529 119.577 18.02 119.577 22.5433V35.2702H116.402V22.4981C116.402 18.8701 115.856 16.3462 114.758 14.9276C113.663 13.5084 111.829 12.7982 109.257 12.7982C107.794 12.7982 106.512 13.0914 105.408 13.6751C104.305 14.2601 103.434 15.0984 102.794 16.1914C102.398 16.8739 102.12 17.6519 101.961 18.525C101.801 19.3982 101.721 20.919 101.721 23.0898V35.2702H98.5475V2.12109Z" fill="#505154"/>
<path fill-rule="evenodd" clip-rule="evenodd" d="M148.475 21.8056C148.475 19.1495 147.523 16.8318 145.621 14.8512C143.718 12.8696 141.526 11.8792 139.045 11.8792C136.35 11.8792 134.057 12.8696 132.16 14.8512C130.266 16.8318 129.318 19.2865 129.318 22.2165C129.318 25.0086 130.262 27.3658 132.149 29.2853C134.037 31.2057 136.305 32.164 138.954 32.164C141.511 32.164 143.736 31.1511 145.632 29.1252C147.527 27.0994 148.475 24.6589 148.475 21.8056ZM148.475 30.526C147.47 31.9682 146.112 33.0983 144.4 33.9178C142.687 34.7377 140.841 35.1482 138.862 35.1482C135.178 35.1482 132.11 33.8914 129.66 31.3789C127.209 28.8682 125.984 25.7669 125.984 22.079C125.984 18.3295 127.236 15.1962 129.741 12.6761C132.244 10.157 135.376 8.89648 139.136 8.89648C141.068 8.89648 142.842 9.2881 144.456 10.069C146.07 10.8517 147.409 11.9776 148.475 13.4504V9.44436H151.625V34.4868H148.475V30.526Z" fill="#505154"/>
<path fill-rule="evenodd" clip-rule="evenodd" d="M24.177 14.5263C21.8012 11.184 17.8926 9 13.4709 9C8.03529 9 3.37144 12.2986 1.38269 16.9984C2.69027 20.5865 14.7658 17.8701 24.177 14.5263Z" fill="#2A8BA3"/>
<path fill-rule="evenodd" clip-rule="evenodd" d="M24.2117 14.5742C14.8051 20.8998 5.2919 23.4608 0.415631 20.8278C0.377395 21.2401 0.354736 21.6571 0.354736 22.0793C0.354736 22.3462 0.366066 22.6122 0.381643 22.8748C1.90164 28.5518 13.6585 25.9611 25.8478 17.8488C25.811 17.8841 25.9242 17.8912 25.8874 17.9265C17.5293 26.0218 8.84502 31.3557 3.0407 30.0053C3.99707 31.2554 5.17436 32.3276 6.51451 33.1655C10.2333 34.0273 16.825 32.3408 25.4725 22.0511C21.9774 29.5463 17.1621 33.8094 12.5695 35.1249C12.8683 35.1447 13.1685 35.1588 13.4716 35.1588C20.7166 35.1588 26.5889 29.303 26.5889 22.0793C26.5889 19.2867 25.7076 16.6989 24.2117 14.5742Z" fill="#2A8BA3"/>
<path fill-rule="evenodd" clip-rule="evenodd" d="M66.5173 2.18635C66.5173 3.39366 65.5355 4.37269 64.3247 4.37269C63.1138 4.37269 62.1324 3.39366 62.1324 2.18635C62.1324 0.97856 63.1138 0 64.3247 0C65.5355 0 66.5173 0.97856 66.5173 2.18635Z" fill="#2A8BA3"/>
</g>
<defs>
<clipPath id="clip0">
<rect width="152" height="36.9143" fill="white"/>
</clipPath>
</defs>
</svg>
