<svg width="88" height="88" viewBox="0 0 88 88" fill="none" xmlns="http://www.w3.org/2000/svg">
<path fill-rule="evenodd" clip-rule="evenodd" d="M44 88C68.3005 88 88 68.3005 88 44C88 19.6995 68.3005 0 44 0C19.6995 0 0 19.6995 0 44C0 68.3005 19.6995 88 44 88ZM38.7205 58.6535C39.0912 58.8067 39.4885 58.885 39.8896 58.8842C40.2907 58.885 40.688 58.8067 41.0587 58.6535C41.4295 58.5004 41.7663 58.2756 42.0499 57.992L63.6588 36.3831C64.2317 35.8098 64.5535 35.0323 64.5532 34.2218C64.5529 33.4112 64.2306 32.634 63.6573 32.061C63.0839 31.4881 62.3065 31.1664 61.4959 31.1667C60.6854 31.167 59.9081 31.4892 59.3352 32.0626L39.8866 51.5051L29.0852 40.7037C28.8031 40.412 28.4658 40.1795 28.0929 40.0196C27.72 39.8598 27.319 39.7758 26.9133 39.7725C26.5075 39.7693 26.1052 39.8469 25.7298 40.0008C25.3544 40.1547 25.0134 40.3818 24.7268 40.6689C24.4401 40.956 24.2134 41.2973 24.0601 41.6729C23.9067 42.0486 23.8297 42.451 23.8335 42.8567C23.8373 43.2624 23.9218 43.6633 24.0822 44.0359C24.2426 44.4086 24.4757 44.7456 24.7677 45.0273L37.7294 57.992C38.013 58.2756 38.3498 58.5004 38.7205 58.6535Z" fill="#008040"/>
</svg>
